<?xml version="1.0" encoding="utf-8" standalone="no"?>
<!DOCTYPE svg PUBLIC "-//W3C//DTD SVG 1.1//EN"
  "http://www.w3.org/Graphics/SVG/1.1/DTD/svg11.dtd">
<!-- Created with matplotlib (https://matplotlib.org/) -->
<svg height="278.99625pt" version="1.1" viewBox="0 0 387.903125 278.99625" width="387.903125pt" xmlns="http://www.w3.org/2000/svg" xmlns:xlink="http://www.w3.org/1999/xlink">
 <defs>
  <style type="text/css">
*{stroke-linecap:butt;stroke-linejoin:round;}
  </style>
 </defs>
 <g id="figure_1">
  <g id="patch_1">
   <path d="M 0 278.99625 
L 387.903125 278.99625 
L 387.903125 0 
L 0 0 
z
" style="fill:none;"/>
  </g>
  <g id="axes_1">
   <g id="patch_2">
    <path d="M 45.903125 241.44 
L 380.703125 241.44 
L 380.703125 24 
L 45.903125 24 
z
" style="fill:#ffffff;"/>
   </g>
   <g id="matplotlib.axis_1">
    <g id="xtick_1">
     <g id="line2d_1">
      <defs>
       <path d="M 0 0 
L 0 3.5 
" id="m56cf4eddf8" style="stroke:#000000;stroke-width:0.8;"/>
      </defs>
      <g>
       <use style="stroke:#000000;stroke-width:0.8;" x="45.903125" xlink:href="#m56cf4eddf8" y="241.44"/>
      </g>
     </g>
     <g id="text_1">
      <!-- 0.0 -->
      <defs>
       <path d="M 31.78125 66.40625 
Q 24.171875 66.40625 20.328125 58.90625 
Q 16.5 51.421875 16.5 36.375 
Q 16.5 21.390625 20.328125 13.890625 
Q 24.171875 6.390625 31.78125 6.390625 
Q 39.453125 6.390625 43.28125 13.890625 
Q 47.125 21.390625 47.125 36.375 
Q 47.125 51.421875 43.28125 58.90625 
Q 39.453125 66.40625 31.78125 66.40625 
z
M 31.78125 74.21875 
Q 44.046875 74.21875 50.515625 64.515625 
Q 56.984375 54.828125 56.984375 36.375 
Q 56.984375 17.96875 50.515625 8.265625 
Q 44.046875 -1.421875 31.78125 -1.421875 
Q 19.53125 -1.421875 13.0625 8.265625 
Q 6.59375 17.96875 6.59375 36.375 
Q 6.59375 54.828125 13.0625 64.515625 
Q 19.53125 74.21875 31.78125 74.21875 
z
" id="DejaVuSans-48"/>
       <path d="M 10.6875 12.40625 
L 21 12.40625 
L 21 0 
L 10.6875 0 
z
" id="DejaVuSans-46"/>
      </defs>
      <g transform="translate(37.951563 256.038438)scale(0.1 -0.1)">
       <use xlink:href="#DejaVuSans-48"/>
       <use x="63.623047" xlink:href="#DejaVuSans-46"/>
       <use x="95.410156" xlink:href="#DejaVuSans-48"/>
      </g>
     </g>
    </g>
    <g id="xtick_2">
     <g id="line2d_2">
      <g>
       <use style="stroke:#000000;stroke-width:0.8;" x="116.387336" xlink:href="#m56cf4eddf8" y="241.44"/>
      </g>
     </g>
     <g id="text_2">
      <!-- 0.2 -->
      <defs>
       <path d="M 19.1875 8.296875 
L 53.609375 8.296875 
L 53.609375 0 
L 7.328125 0 
L 7.328125 8.296875 
Q 12.9375 14.109375 22.625 23.890625 
Q 32.328125 33.6875 34.8125 36.53125 
Q 39.546875 41.84375 41.421875 45.53125 
Q 43.3125 49.21875 43.3125 52.78125 
Q 43.3125 58.59375 39.234375 62.25 
Q 35.15625 65.921875 28.609375 65.921875 
Q 23.96875 65.921875 18.8125 64.3125 
Q 13.671875 62.703125 7.8125 59.421875 
L 7.8125 69.390625 
Q 13.765625 71.78125 18.9375 73 
Q 24.125 74.21875 28.421875 74.21875 
Q 39.75 74.21875 46.484375 68.546875 
Q 53.21875 62.890625 53.21875 53.421875 
Q 53.21875 48.921875 51.53125 44.890625 
Q 49.859375 40.875 45.40625 35.40625 
Q 44.1875 33.984375 37.640625 27.21875 
Q 31.109375 20.453125 19.1875 8.296875 
z
" id="DejaVuSans-50"/>
      </defs>
      <g transform="translate(108.435773 256.038438)scale(0.1 -0.1)">
       <use xlink:href="#DejaVuSans-48"/>
       <use x="63.623047" xlink:href="#DejaVuSans-46"/>
       <use x="95.410156" xlink:href="#DejaVuSans-50"/>
      </g>
     </g>
    </g>
    <g id="xtick_3">
     <g id="line2d_3">
      <g>
       <use style="stroke:#000000;stroke-width:0.8;" x="186.871546" xlink:href="#m56cf4eddf8" y="241.44"/>
      </g>
     </g>
     <g id="text_3">
      <!-- 0.4 -->
      <defs>
       <path d="M 37.796875 64.3125 
L 12.890625 25.390625 
L 37.796875 25.390625 
z
M 35.203125 72.90625 
L 47.609375 72.90625 
L 47.609375 25.390625 
L 58.015625 25.390625 
L 58.015625 17.1875 
L 47.609375 17.1875 
L 47.609375 0 
L 37.796875 0 
L 37.796875 17.1875 
L 4.890625 17.1875 
L 4.890625 26.703125 
z
" id="DejaVuSans-52"/>
      </defs>
      <g transform="translate(178.919984 256.038438)scale(0.1 -0.1)">
       <use xlink:href="#DejaVuSans-48"/>
       <use x="63.623047" xlink:href="#DejaVuSans-46"/>
       <use x="95.410156" xlink:href="#DejaVuSans-52"/>
      </g>
     </g>
    </g>
    <g id="xtick_4">
     <g id="line2d_4">
      <g>
       <use style="stroke:#000000;stroke-width:0.8;" x="257.355757" xlink:href="#m56cf4eddf8" y="241.44"/>
      </g>
     </g>
     <g id="text_4">
      <!-- 0.6 -->
      <defs>
       <path d="M 33.015625 40.375 
Q 26.375 40.375 22.484375 35.828125 
Q 18.609375 31.296875 18.609375 23.390625 
Q 18.609375 15.53125 22.484375 10.953125 
Q 26.375 6.390625 33.015625 6.390625 
Q 39.65625 6.390625 43.53125 10.953125 
Q 47.40625 15.53125 47.40625 23.390625 
Q 47.40625 31.296875 43.53125 35.828125 
Q 39.65625 40.375 33.015625 40.375 
z
M 52.59375 71.296875 
L 52.59375 62.3125 
Q 48.875 64.0625 45.09375 64.984375 
Q 41.3125 65.921875 37.59375 65.921875 
Q 27.828125 65.921875 22.671875 59.328125 
Q 17.53125 52.734375 16.796875 39.40625 
Q 19.671875 43.65625 24.015625 45.921875 
Q 28.375 48.1875 33.59375 48.1875 
Q 44.578125 48.1875 50.953125 41.515625 
Q 57.328125 34.859375 57.328125 23.390625 
Q 57.328125 12.15625 50.6875 5.359375 
Q 44.046875 -1.421875 33.015625 -1.421875 
Q 20.359375 -1.421875 13.671875 8.265625 
Q 6.984375 17.96875 6.984375 36.375 
Q 6.984375 53.65625 15.1875 63.9375 
Q 23.390625 74.21875 37.203125 74.21875 
Q 40.921875 74.21875 44.703125 73.484375 
Q 48.484375 72.75 52.59375 71.296875 
z
" id="DejaVuSans-54"/>
      </defs>
      <g transform="translate(249.404194 256.038438)scale(0.1 -0.1)">
       <use xlink:href="#DejaVuSans-48"/>
       <use x="63.623047" xlink:href="#DejaVuSans-46"/>
       <use x="95.410156" xlink:href="#DejaVuSans-54"/>
      </g>
     </g>
    </g>
    <g id="xtick_5">
     <g id="line2d_5">
      <g>
       <use style="stroke:#000000;stroke-width:0.8;" x="327.839967" xlink:href="#m56cf4eddf8" y="241.44"/>
      </g>
     </g>
     <g id="text_5">
      <!-- 0.8 -->
      <defs>
       <path d="M 31.78125 34.625 
Q 24.75 34.625 20.71875 30.859375 
Q 16.703125 27.09375 16.703125 20.515625 
Q 16.703125 13.921875 20.71875 10.15625 
Q 24.75 6.390625 31.78125 6.390625 
Q 38.8125 6.390625 42.859375 10.171875 
Q 46.921875 13.96875 46.921875 20.515625 
Q 46.921875 27.09375 42.890625 30.859375 
Q 38.875 34.625 31.78125 34.625 
z
M 21.921875 38.8125 
Q 15.578125 40.375 12.03125 44.71875 
Q 8.5 49.078125 8.5 55.328125 
Q 8.5 64.0625 14.71875 69.140625 
Q 20.953125 74.21875 31.78125 74.21875 
Q 42.671875 74.21875 48.875 69.140625 
Q 55.078125 64.0625 55.078125 55.328125 
Q 55.078125 49.078125 51.53125 44.71875 
Q 48 40.375 41.703125 38.8125 
Q 48.828125 37.15625 52.796875 32.3125 
Q 56.78125 27.484375 56.78125 20.515625 
Q 56.78125 9.90625 50.3125 4.234375 
Q 43.84375 -1.421875 31.78125 -1.421875 
Q 19.734375 -1.421875 13.25 4.234375 
Q 6.78125 9.90625 6.78125 20.515625 
Q 6.78125 27.484375 10.78125 32.3125 
Q 14.796875 37.15625 21.921875 38.8125 
z
M 18.3125 54.390625 
Q 18.3125 48.734375 21.84375 45.5625 
Q 25.390625 42.390625 31.78125 42.390625 
Q 38.140625 42.390625 41.71875 45.5625 
Q 45.3125 48.734375 45.3125 54.390625 
Q 45.3125 60.0625 41.71875 63.234375 
Q 38.140625 66.40625 31.78125 66.40625 
Q 25.390625 66.40625 21.84375 63.234375 
Q 18.3125 60.0625 18.3125 54.390625 
z
" id="DejaVuSans-56"/>
      </defs>
      <g transform="translate(319.888405 256.038438)scale(0.1 -0.1)">
       <use xlink:href="#DejaVuSans-48"/>
       <use x="63.623047" xlink:href="#DejaVuSans-46"/>
       <use x="95.410156" xlink:href="#DejaVuSans-56"/>
      </g>
     </g>
    </g>
    <g id="text_6">
     <!-- $\Theta$ -->
     <defs>
      <path d="M 22.125 42.96875 
L 56.59375 42.96875 
L 56.59375 34.671875 
L 22.125 34.671875 
z
M 39.40625 66.21875 
Q 28.65625 66.21875 22.359375 58.203125 
Q 16.015625 50.203125 16.015625 36.375 
Q 16.015625 22.609375 22.328125 14.59375 
Q 28.65625 6.59375 39.40625 6.59375 
Q 50.140625 6.59375 56.453125 14.59375 
Q 62.703125 22.609375 62.703125 36.375 
Q 62.703125 50.203125 56.453125 58.203125 
Q 50.140625 66.21875 39.40625 66.21875 
z
M 39.40625 74.21875 
Q 54.734375 74.21875 63.90625 63.9375 
Q 73.09375 53.65625 73.09375 36.375 
Q 73.09375 19.140625 63.921875 8.890625 
Q 54.734375 -1.421875 39.40625 -1.421875 
Q 24.03125 -1.421875 14.84375 8.84375 
Q 5.609375 19.09375 5.609375 36.375 
Q 5.609375 53.65625 14.84375 63.96875 
Q 24.03125 74.21875 39.40625 74.21875 
z
" id="DejaVuSans-920"/>
     </defs>
     <g transform="translate(209.353125 269.716563)scale(0.1 -0.1)">
      <use transform="translate(0 0.78125)" xlink:href="#DejaVuSans-920"/>
     </g>
    </g>
   </g>
   <g id="matplotlib.axis_2">
    <g id="ytick_1">
     <g id="line2d_6">
      <defs>
       <path d="M 0 0 
L -3.5 0 
" id="m3c87594f5d" style="stroke:#000000;stroke-width:0.8;"/>
      </defs>
      <g>
       <use style="stroke:#000000;stroke-width:0.8;" x="45.903125" xlink:href="#m3c87594f5d" y="241.44"/>
      </g>
     </g>
     <g id="text_7">
      <!-- 0.0 -->
      <g transform="translate(23 245.239219)scale(0.1 -0.1)">
       <use xlink:href="#DejaVuSans-48"/>
       <use x="63.623047" xlink:href="#DejaVuSans-46"/>
       <use x="95.410156" xlink:href="#DejaVuSans-48"/>
      </g>
     </g>
    </g>
    <g id="ytick_2">
     <g id="line2d_7">
      <g>
       <use style="stroke:#000000;stroke-width:0.8;" x="45.903125" xlink:href="#m3c87594f5d" y="197.952"/>
      </g>
     </g>
     <g id="text_8">
      <!-- 0.2 -->
      <g transform="translate(23 201.751219)scale(0.1 -0.1)">
       <use xlink:href="#DejaVuSans-48"/>
       <use x="63.623047" xlink:href="#DejaVuSans-46"/>
       <use x="95.410156" xlink:href="#DejaVuSans-50"/>
      </g>
     </g>
    </g>
    <g id="ytick_3">
     <g id="line2d_8">
      <g>
       <use style="stroke:#000000;stroke-width:0.8;" x="45.903125" xlink:href="#m3c87594f5d" y="154.464"/>
      </g>
     </g>
     <g id="text_9">
      <!-- 0.4 -->
      <g transform="translate(23 158.263219)scale(0.1 -0.1)">
       <use xlink:href="#DejaVuSans-48"/>
       <use x="63.623047" xlink:href="#DejaVuSans-46"/>
       <use x="95.410156" xlink:href="#DejaVuSans-52"/>
      </g>
     </g>
    </g>
    <g id="ytick_4">
     <g id="line2d_9">
      <g>
       <use style="stroke:#000000;stroke-width:0.8;" x="45.903125" xlink:href="#m3c87594f5d" y="110.976"/>
      </g>
     </g>
     <g id="text_10">
      <!-- 0.6 -->
      <g transform="translate(23 114.775219)scale(0.1 -0.1)">
       <use xlink:href="#DejaVuSans-48"/>
       <use x="63.623047" xlink:href="#DejaVuSans-46"/>
       <use x="95.410156" xlink:href="#DejaVuSans-54"/>
      </g>
     </g>
    </g>
    <g id="ytick_5">
     <g id="line2d_10">
      <g>
       <use style="stroke:#000000;stroke-width:0.8;" x="45.903125" xlink:href="#m3c87594f5d" y="67.488"/>
      </g>
     </g>
     <g id="text_11">
      <!-- 0.8 -->
      <g transform="translate(23 71.287219)scale(0.1 -0.1)">
       <use xlink:href="#DejaVuSans-48"/>
       <use x="63.623047" xlink:href="#DejaVuSans-46"/>
       <use x="95.410156" xlink:href="#DejaVuSans-56"/>
      </g>
     </g>
    </g>
    <g id="ytick_6">
     <g id="line2d_11">
      <g>
       <use style="stroke:#000000;stroke-width:0.8;" x="45.903125" xlink:href="#m3c87594f5d" y="24"/>
      </g>
     </g>
     <g id="text_12">
      <!-- 1.0 -->
      <defs>
       <path d="M 12.40625 8.296875 
L 28.515625 8.296875 
L 28.515625 63.921875 
L 10.984375 60.40625 
L 10.984375 69.390625 
L 28.421875 72.90625 
L 38.28125 72.90625 
L 38.28125 8.296875 
L 54.390625 8.296875 
L 54.390625 0 
L 12.40625 0 
z
" id="DejaVuSans-49"/>
      </defs>
      <g transform="translate(23 27.799219)scale(0.1 -0.1)">
       <use xlink:href="#DejaVuSans-49"/>
       <use x="63.623047" xlink:href="#DejaVuSans-46"/>
       <use x="95.410156" xlink:href="#DejaVuSans-48"/>
      </g>
     </g>
    </g>
    <g id="text_13">
     <!-- $x_1^P$ -->
     <defs>
      <path d="M 60.015625 54.6875 
L 34.90625 27.875 
L 50.296875 0 
L 39.984375 0 
L 28.421875 21.6875 
L 8.296875 0 
L -2.59375 0 
L 24.3125 28.8125 
L 10.015625 54.6875 
L 20.3125 54.6875 
L 30.8125 34.90625 
L 49.125 54.6875 
z
" id="DejaVuSans-Oblique-120"/>
      <path d="M 16.890625 72.90625 
L 39.703125 72.90625 
Q 49.65625 72.90625 54.875 68.265625 
Q 60.109375 63.625 60.109375 54.6875 
Q 60.109375 42.671875 52.390625 35.984375 
Q 44.671875 29.296875 30.71875 29.296875 
L 18.3125 29.296875 
L 12.59375 0 
L 2.6875 0 
z
M 25.203125 64.796875 
L 19.921875 37.40625 
L 32.328125 37.40625 
Q 40.71875 37.40625 45.203125 41.703125 
Q 49.703125 46 49.703125 54 
Q 49.703125 59.125 46.65625 61.953125 
Q 43.609375 64.796875 38.09375 64.796875 
z
" id="DejaVuSans-Oblique-80"/>
     </defs>
     <g transform="translate(16.2 138.17)rotate(-90)scale(0.1 -0.1)">
      <use transform="translate(0 0.684375)" xlink:href="#DejaVuSans-Oblique-120"/>
      <use transform="translate(63.645833 38.965625)scale(0.7)" xlink:href="#DejaVuSans-Oblique-80"/>
      <use transform="translate(59.179688 -26.659375)scale(0.7)" xlink:href="#DejaVuSans-49"/>
     </g>
    </g>
   </g>
   <g id="line2d_12">
    <path clip-path="url(#p25ad81ce41)" d="M 45.903125 121.252699 
L 49.284943 122.346876 
L 52.666761 123.444275 
L 56.04858 124.544226 
L 59.430398 125.646052 
L 62.812216 126.74907 
L 66.194034 127.852597 
L 69.575852 128.955949 
L 72.95767 130.058444 
L 76.339489 131.159409 
L 79.721307 132.258176 
L 83.103125 133.354094 
L 86.484943 134.446519 
L 89.866761 135.534829 
L 93.24858 136.618418 
L 96.630398 137.696699 
L 100.012216 138.769109 
L 103.394034 139.835107 
L 106.775852 140.894177 
L 110.15767 141.945831 
L 113.539489 142.989605 
L 116.921307 144.025065 
L 120.303125 145.051801 
L 123.684943 146.069436 
L 127.066761 147.077618 
L 130.44858 148.076025 
L 133.830398 149.064362 
L 137.212216 150.04236 
L 140.594034 151.009781 
L 143.975852 151.96641 
L 147.35767 152.912058 
L 150.739489 153.846562 
L 154.121307 154.769782 
L 157.503125 155.6816 
L 160.884943 156.581922 
L 164.266761 157.470673 
L 167.64858 158.347798 
L 171.030398 159.213261 
L 174.412216 160.067044 
L 177.794034 160.909144 
L 181.175852 161.739575 
L 184.55767 162.558363 
L 187.939489 163.365551 
L 191.321307 164.16119 
L 194.703125 164.945346 
L 198.084943 165.718094 
L 201.466761 166.479518 
L 204.84858 167.22971 
L 208.230398 167.968772 
L 211.612216 168.696813 
L 214.994034 169.413945 
L 218.375852 170.12029 
L 221.75767 170.815972 
L 225.139489 171.501121 
L 228.521307 172.175869 
L 231.903125 172.840354 
L 235.284943 173.494714 
L 238.666761 174.139091 
L 242.04858 174.773629 
L 245.430398 175.398472 
L 248.812216 176.013766 
L 252.194034 176.619659 
L 255.575852 177.216297 
L 258.95767 177.803827 
L 262.339489 178.382398 
L 265.721307 178.952156 
L 269.103125 179.513247 
L 272.484943 180.065818 
L 275.866761 180.610012 
L 279.24858 181.145975 
L 282.630398 181.673847 
L 286.012216 182.193772 
L 289.394034 182.705887 
L 292.775852 183.210332 
L 296.15767 183.707242 
L 299.539489 184.196753 
L 302.921307 184.678998 
L 306.303125 185.154107 
L 309.684943 185.62221 
L 313.066761 186.083435 
L 316.44858 186.537906 
L 319.830398 186.985747 
L 323.212216 187.427079 
L 326.594034 187.862022 
L 329.975852 188.290692 
L 333.35767 188.713206 
L 336.739489 189.129675 
L 340.121307 189.540212 
L 343.503125 189.944926 
L 346.884943 190.343923 
L 350.266761 190.737308 
L 353.64858 191.125186 
L 357.030398 191.507656 
L 360.412216 191.884819 
L 363.794034 192.25677 
L 367.175852 192.623607 
L 370.55767 192.985422 
L 373.939489 193.342306 
L 377.321307 193.69435 
L 380.703125 194.041642 
" style="fill:none;stroke:#1f77b4;stroke-linecap:square;stroke-width:1.5;"/>
   </g>
   <g id="line2d_13">
    <path clip-path="url(#p25ad81ce41)" d="M 45.903125 88.132423 
L 49.284943 89.512574 
L 52.666761 90.924035 
L 56.04858 92.366045 
L 59.430398 93.837659 
L 62.812216 95.337742 
L 66.194034 96.864967 
L 69.575852 98.417823 
L 72.95767 99.994611 
L 76.339489 101.59346 
L 79.721307 103.212336 
L 83.103125 104.849062 
L 86.484943 106.501331 
L 89.866761 108.166731 
L 93.24858 109.842771 
L 96.630398 111.526902 
L 100.012216 113.216548 
L 103.394034 114.90913 
L 106.775852 116.60209 
L 110.15767 118.292923 
L 113.539489 119.979192 
L 116.921307 121.658553 
L 120.303125 123.328773 
L 123.684943 124.987743 
L 127.066761 126.633494 
L 130.44858 128.264202 
L 133.830398 129.878196 
L 137.212216 131.47396 
L 140.594034 133.050137 
L 143.975852 134.605524 
L 147.35767 136.13907 
L 150.739489 137.649871 
L 154.121307 139.137163 
L 157.503125 140.600316 
L 160.884943 142.038823 
L 164.266761 143.452295 
L 167.64858 144.84045 
L 171.030398 146.203104 
L 174.412216 147.540162 
L 177.794034 148.851612 
L 181.175852 150.137514 
L 184.55767 151.39799 
L 187.939489 152.633224 
L 191.321307 153.843446 
L 194.703125 155.028934 
L 198.084943 156.189999 
L 201.466761 157.326988 
L 204.84858 158.440274 
L 208.230398 159.530252 
L 211.612216 160.597337 
L 214.994034 161.641957 
L 218.375852 162.664553 
L 221.75767 163.665573 
L 225.139489 164.645473 
L 228.521307 165.604711 
L 231.903125 166.543746 
L 235.284943 167.463039 
L 238.666761 168.363047 
L 242.04858 169.244226 
L 245.430398 170.107024 
L 248.812216 170.951889 
L 252.194034 171.779258 
L 255.575852 172.589564 
L 258.95767 173.383232 
L 262.339489 174.16068 
L 265.721307 174.922315 
L 269.103125 175.668539 
L 272.484943 176.399742 
L 275.866761 177.116308 
L 279.24858 177.818611 
L 282.630398 178.507014 
L 286.012216 179.181875 
L 289.394034 179.843538 
L 292.775852 180.492343 
L 296.15767 181.128617 
L 299.539489 181.75268 
L 302.921307 182.364845 
L 306.303125 182.965412 
L 309.684943 183.554678 
L 313.066761 184.132928 
L 316.44858 184.70044 
L 319.830398 185.257484 
L 323.212216 185.804323 
L 326.594034 186.341212 
L 329.975852 186.868399 
L 333.35767 187.386124 
L 336.739489 187.894622 
L 340.121307 188.394118 
L 343.503125 188.884833 
L 346.884943 189.366982 
L 350.266761 189.840772 
L 353.64858 190.306405 
L 357.030398 190.764077 
L 360.412216 191.213978 
L 363.794034 191.656294 
L 367.175852 192.091203 
L 370.55767 192.51888 
L 373.939489 192.939495 
L 377.321307 193.353212 
L 380.703125 193.76019 
" style="fill:none;stroke:#ff7f0e;stroke-linecap:square;stroke-width:1.5;"/>
   </g>
   <g id="line2d_14">
    <path clip-path="url(#p25ad81ce41)" d="M 45.903125 56.060289 
L 49.284943 57.203176 
L 52.666761 58.411819 
L 56.04858 59.689936 
L 59.430398 61.041194 
L 62.812216 62.469126 
L 66.194034 63.977024 
L 69.575852 65.567816 
L 72.95767 67.243921 
L 76.339489 69.007099 
L 79.721307 70.85828 
L 83.103125 72.79741 
L 86.484943 74.823297 
L 89.866761 76.933497 
L 93.24858 79.124231 
L 96.630398 81.390366 
L 100.012216 83.725459 
L 103.394034 86.121864 
L 106.775852 88.570919 
L 110.15767 91.063167 
L 113.539489 93.588634 
L 116.921307 96.137116 
L 120.303125 98.698458 
L 123.684943 101.262817 
L 127.066761 103.820885 
L 130.44858 106.364058 
L 133.830398 108.884564 
L 137.212216 111.375532 
L 140.594034 113.831023 
L 143.975852 116.246019 
L 147.35767 118.616389 
L 150.739489 120.938827 
L 154.121307 123.210782 
L 157.503125 125.43038 
L 160.884943 127.596346 
L 164.266761 129.707919 
L 167.64858 131.764785 
L 171.030398 133.767002 
L 174.412216 135.71494 
L 177.794034 137.609225 
L 181.175852 139.450689 
L 184.55767 141.240329 
L 187.939489 142.979269 
L 191.321307 144.668729 
L 194.703125 146.31 
L 198.084943 147.90442 
L 201.466761 149.453358 
L 204.84858 150.958195 
L 208.230398 152.420317 
L 211.612216 153.841098 
L 214.994034 155.221899 
L 218.375852 156.564058 
L 221.75767 157.868885 
L 225.139489 159.137659 
L 228.521307 160.371626 
L 231.903125 161.571993 
L 235.284943 162.739933 
L 238.666761 163.876579 
L 242.04858 164.983027 
L 245.430398 166.060334 
L 248.812216 167.109518 
L 252.194034 168.13156 
L 255.575852 169.127404 
L 258.95767 170.09796 
L 262.339489 171.044101 
L 265.721307 171.966665 
L 269.103125 172.86646 
L 272.484943 173.74426 
L 275.866761 174.600809 
L 279.24858 175.436821 
L 282.630398 176.252984 
L 286.012216 177.049955 
L 289.394034 177.828368 
L 292.775852 178.588829 
L 296.15767 179.331922 
L 299.539489 180.058208 
L 302.921307 180.768224 
L 306.303125 181.462488 
L 309.684943 182.141496 
L 313.066761 182.805725 
L 316.44858 183.455635 
L 319.830398 184.091667 
L 323.212216 184.714245 
L 326.594034 185.323776 
L 329.975852 185.920654 
L 333.35767 186.505255 
L 336.739489 187.077943 
L 340.121307 187.639067 
L 343.503125 188.188966 
L 346.884943 188.727962 
L 350.266761 189.256368 
L 353.64858 189.774486 
L 357.030398 190.282605 
L 360.412216 190.781005 
L 363.794034 191.269956 
L 367.175852 191.749718 
L 370.55767 192.220542 
L 373.939489 192.68267 
L 377.321307 193.136336 
L 380.703125 193.581766 
" style="fill:none;stroke:#2ca02c;stroke-linecap:square;stroke-width:1.5;"/>
   </g>
   <g id="line2d_15">
    <path clip-path="url(#p25ad81ce41)" d="M 45.903125 36.088108 
L 49.284943 36.658201 
L 52.666761 37.280093 
L 56.04858 37.960412 
L 59.430398 38.706791 
L 62.812216 39.528017 
L 66.194034 40.434175 
L 69.575852 41.436797 
L 72.95767 42.548971 
L 76.339489 43.78539 
L 79.721307 45.162283 
L 83.103125 46.697152 
L 86.484943 48.408216 
L 89.866761 50.313476 
L 93.24858 52.429298 
L 96.630398 54.768539 
L 100.012216 57.338351 
L 103.394034 60.138022 
L 106.775852 63.157379 
L 110.15767 66.376301 
L 113.539489 69.765673 
L 116.921307 73.289694 
L 120.303125 76.909045 
L 123.684943 80.584164 
L 127.066761 84.278014 
L 130.44858 87.957964 
L 133.830398 91.596747 
L 137.212216 95.172646 
L 140.594034 98.669154 
L 143.975852 102.074355 
L 147.35767 105.380183 
L 150.739489 108.581689 
L 154.121307 111.676383 
L 157.503125 114.663659 
L 160.884943 117.544325 
L 164.266761 120.320227 
L 167.64858 122.993944 
L 171.030398 125.568564 
L 174.412216 128.0475 
L 177.794034 130.434358 
L 181.175852 132.732835 
L 184.55767 134.946647 
L 187.939489 137.079471 
L 191.321307 139.134908 
L 194.703125 141.116457 
L 198.084943 143.027496 
L 201.466761 144.871268 
L 204.84858 146.650882 
L 208.230398 148.369301 
L 211.612216 150.02935 
L 214.994034 151.633715 
L 218.375852 153.184945 
L 221.75767 154.685459 
L 225.139489 156.137551 
L 228.521307 157.543394 
L 231.903125 158.905046 
L 235.284943 160.224458 
L 238.666761 161.503474 
L 242.04858 162.743845 
L 245.430398 163.947226 
L 248.812216 165.115187 
L 252.194034 166.249214 
L 255.575852 167.350718 
L 258.95767 168.421036 
L 262.339489 169.461434 
L 265.721307 170.473117 
L 269.103125 171.457227 
L 272.484943 172.414847 
L 275.866761 173.34701 
L 279.24858 174.254695 
L 282.630398 175.138834 
L 286.012216 176.000312 
L 289.394034 176.839975 
L 292.775852 177.658625 
L 296.15767 178.457029 
L 299.539489 179.235915 
L 302.921307 179.99598 
L 306.303125 180.737888 
L 309.684943 181.462272 
L 313.066761 182.169738 
L 316.44858 182.860864 
L 319.830398 183.536202 
L 323.212216 184.196281 
L 326.594034 184.841605 
L 329.975852 185.47266 
L 333.35767 186.089907 
L 336.739489 186.693791 
L 340.121307 187.284736 
L 343.503125 187.86315 
L 346.884943 188.429424 
L 350.266761 188.983932 
L 353.64858 189.527035 
L 357.030398 190.059077 
L 360.412216 190.58039 
L 363.794034 191.091293 
L 367.175852 191.592093 
L 370.55767 192.083084 
L 373.939489 192.564549 
L 377.321307 193.036761 
L 380.703125 193.499983 
" style="fill:none;stroke:#d62728;stroke-linecap:square;stroke-width:1.5;"/>
   </g>
   <g id="line2d_16">
    <path clip-path="url(#p25ad81ce41)" d="M 45.903125 27.805839 
L 49.284943 28.006405 
L 52.666761 28.228709 
L 56.04858 28.476374 
L 59.430398 28.753844 
L 62.812216 29.066623 
L 66.194034 29.421587 
L 69.575852 29.82741 
L 72.95767 30.295154 
L 76.339489 30.839054 
L 79.721307 31.477609 
L 83.103125 32.235037 
L 86.484943 33.143178 
L 89.866761 34.243824 
L 93.24858 35.591125 
L 96.630398 37.25304 
L 100.012216 39.309403 
L 103.394034 41.842556 
L 106.775852 44.916915 
L 110.15767 48.550567 
L 113.539489 52.694381 
L 116.921307 57.237059 
L 120.303125 62.035875 
L 123.684943 66.952158 
L 127.066761 71.873152 
L 130.44858 76.717778 
L 133.830398 81.432954 
L 137.212216 85.986913 
L 140.594034 90.362842 
L 143.975852 94.553929 
L 147.35767 98.559817 
L 150.739489 102.384186 
L 154.121307 106.033142 
L 157.503125 109.514154 
L 160.884943 112.835368 
L 164.266761 116.005156 
L 167.64858 119.03184 
L 171.030398 121.923516 
L 174.412216 124.687952 
L 177.794034 127.332528 
L 181.175852 129.864213 
L 184.55767 132.289559 
L 187.939489 134.614705 
L 191.321307 136.845391 
L 194.703125 138.986979 
L 198.084943 141.044475 
L 201.466761 143.022545 
L 204.84858 144.925544 
L 208.230398 146.757535 
L 211.612216 148.522307 
L 214.994034 150.223401 
L 218.375852 151.864122 
L 221.75767 153.447561 
L 225.139489 154.976608 
L 228.521307 156.453967 
L 231.903125 157.882175 
L 235.284943 159.263606 
L 238.666761 160.600488 
L 242.04858 161.894915 
L 245.430398 163.148853 
L 248.812216 164.36415 
L 252.194034 165.542546 
L 255.575852 166.68568 
L 258.95767 167.795097 
L 262.339489 168.872253 
L 265.721307 169.918525 
L 269.103125 170.93521 
L 272.484943 171.923538 
L 275.866761 172.884669 
L 279.24858 173.819704 
L 282.630398 174.729685 
L 286.012216 175.6156 
L 289.394034 176.478384 
L 292.775852 177.318929 
L 296.15767 178.138077 
L 299.539489 178.936632 
L 302.921307 179.715356 
L 306.303125 180.474977 
L 309.684943 181.216186 
L 313.066761 181.939641 
L 316.44858 182.64597 
L 319.830398 183.335772 
L 323.212216 184.009618 
L 326.594034 184.668054 
L 329.975852 185.3116 
L 333.35767 185.940753 
L 336.739489 186.555991 
L 340.121307 187.157769 
L 343.503125 187.746521 
L 346.884943 188.322666 
L 350.266761 188.886602 
L 353.64858 189.438713 
L 357.030398 189.979366 
L 360.412216 190.508913 
L 363.794034 191.027692 
L 367.175852 191.536027 
L 370.55767 192.034231 
L 373.939489 192.522601 
L 377.321307 193.001426 
L 380.703125 193.470983 
" style="fill:none;stroke:#9467bd;stroke-linecap:square;stroke-width:1.5;"/>
   </g>
   <g id="patch_3">
    <path d="M 45.903125 241.44 
L 45.903125 24 
" style="fill:none;stroke:#000000;stroke-linecap:square;stroke-linejoin:miter;stroke-width:0.8;"/>
   </g>
   <g id="patch_4">
    <path d="M 380.703125 241.44 
L 380.703125 24 
" style="fill:none;stroke:#000000;stroke-linecap:square;stroke-linejoin:miter;stroke-width:0.8;"/>
   </g>
   <g id="patch_5">
    <path d="M 45.903125 241.44 
L 380.703125 241.44 
" style="fill:none;stroke:#000000;stroke-linecap:square;stroke-linejoin:miter;stroke-width:0.8;"/>
   </g>
   <g id="patch_6">
    <path d="M 45.903125 24 
L 380.703125 24 
" style="fill:none;stroke:#000000;stroke-linecap:square;stroke-linejoin:miter;stroke-width:0.8;"/>
   </g>
   <g id="text_14">
    <!-- Effect of $α_{1/2}$  ($p_R/p_P$=30, $x_1^F$= 0.21) -->
    <defs>
     <path d="M 9.8125 72.90625 
L 55.90625 72.90625 
L 55.90625 64.59375 
L 19.671875 64.59375 
L 19.671875 43.015625 
L 54.390625 43.015625 
L 54.390625 34.71875 
L 19.671875 34.71875 
L 19.671875 8.296875 
L 56.78125 8.296875 
L 56.78125 0 
L 9.8125 0 
z
" id="DejaVuSans-69"/>
     <path d="M 37.109375 75.984375 
L 37.109375 68.5 
L 28.515625 68.5 
Q 23.6875 68.5 21.796875 66.546875 
Q 19.921875 64.59375 19.921875 59.515625 
L 19.921875 54.6875 
L 34.71875 54.6875 
L 34.71875 47.703125 
L 19.921875 47.703125 
L 19.921875 0 
L 10.890625 0 
L 10.890625 47.703125 
L 2.296875 47.703125 
L 2.296875 54.6875 
L 10.890625 54.6875 
L 10.890625 58.5 
Q 10.890625 67.625 15.140625 71.796875 
Q 19.390625 75.984375 28.609375 75.984375 
z
" id="DejaVuSans-102"/>
     <path d="M 56.203125 29.59375 
L 56.203125 25.203125 
L 14.890625 25.203125 
Q 15.484375 15.921875 20.484375 11.0625 
Q 25.484375 6.203125 34.421875 6.203125 
Q 39.59375 6.203125 44.453125 7.46875 
Q 49.3125 8.734375 54.109375 11.28125 
L 54.109375 2.78125 
Q 49.265625 0.734375 44.1875 -0.34375 
Q 39.109375 -1.421875 33.890625 -1.421875 
Q 20.796875 -1.421875 13.15625 6.1875 
Q 5.515625 13.8125 5.515625 26.8125 
Q 5.515625 40.234375 12.765625 48.109375 
Q 20.015625 56 32.328125 56 
Q 43.359375 56 49.78125 48.890625 
Q 56.203125 41.796875 56.203125 29.59375 
z
M 47.21875 32.234375 
Q 47.125 39.59375 43.09375 43.984375 
Q 39.0625 48.390625 32.421875 48.390625 
Q 24.90625 48.390625 20.390625 44.140625 
Q 15.875 39.890625 15.1875 32.171875 
z
" id="DejaVuSans-101"/>
     <path d="M 48.78125 52.59375 
L 48.78125 44.1875 
Q 44.96875 46.296875 41.140625 47.34375 
Q 37.3125 48.390625 33.40625 48.390625 
Q 24.65625 48.390625 19.8125 42.84375 
Q 14.984375 37.3125 14.984375 27.296875 
Q 14.984375 17.28125 19.8125 11.734375 
Q 24.65625 6.203125 33.40625 6.203125 
Q 37.3125 6.203125 41.140625 7.25 
Q 44.96875 8.296875 48.78125 10.40625 
L 48.78125 2.09375 
Q 45.015625 0.34375 40.984375 -0.53125 
Q 36.96875 -1.421875 32.421875 -1.421875 
Q 20.0625 -1.421875 12.78125 6.34375 
Q 5.515625 14.109375 5.515625 27.296875 
Q 5.515625 40.671875 12.859375 48.328125 
Q 20.21875 56 33.015625 56 
Q 37.15625 56 41.109375 55.140625 
Q 45.0625 54.296875 48.78125 52.59375 
z
" id="DejaVuSans-99"/>
     <path d="M 18.3125 70.21875 
L 18.3125 54.6875 
L 36.8125 54.6875 
L 36.8125 47.703125 
L 18.3125 47.703125 
L 18.3125 18.015625 
Q 18.3125 11.328125 20.140625 9.421875 
Q 21.96875 7.515625 27.59375 7.515625 
L 36.8125 7.515625 
L 36.8125 0 
L 27.59375 0 
Q 17.1875 0 13.234375 3.875 
Q 9.28125 7.765625 9.28125 18.015625 
L 9.28125 47.703125 
L 2.6875 47.703125 
L 2.6875 54.6875 
L 9.28125 54.6875 
L 9.28125 70.21875 
z
" id="DejaVuSans-116"/>
     <path id="DejaVuSans-32"/>
     <path d="M 30.609375 48.390625 
Q 23.390625 48.390625 19.1875 42.75 
Q 14.984375 37.109375 14.984375 27.296875 
Q 14.984375 17.484375 19.15625 11.84375 
Q 23.34375 6.203125 30.609375 6.203125 
Q 37.796875 6.203125 41.984375 11.859375 
Q 46.1875 17.53125 46.1875 27.296875 
Q 46.1875 37.015625 41.984375 42.703125 
Q 37.796875 48.390625 30.609375 48.390625 
z
M 30.609375 56 
Q 42.328125 56 49.015625 48.375 
Q 55.71875 40.765625 55.71875 27.296875 
Q 55.71875 13.875 49.015625 6.21875 
Q 42.328125 -1.421875 30.609375 -1.421875 
Q 18.84375 -1.421875 12.171875 6.21875 
Q 5.515625 13.875 5.515625 27.296875 
Q 5.515625 40.765625 12.171875 48.375 
Q 18.84375 56 30.609375 56 
z
" id="DejaVuSans-111"/>
     <path d="M 40.921875 25.4375 
L 40.96875 36.71875 
Q 41.015625 48.25 32.328125 48.296875 
Q 25.828125 48.34375 21.78125 42.921875 
Q 16.703125 36.234375 14.984375 27.296875 
Q 12.890625 16.546875 15.53125 11.421875 
Q 18.265625 6.203125 24.171875 6.203125 
Q 30.71875 6.203125 36.234375 16.609375 
z
M 33.84375 55.90625 
Q 49.078125 56.15625 48.875 40.375 
Q 48.875 40.375 56.5 54.6875 
L 64.5 54.6875 
L 48.734375 25.046875 
L 48.578125 14.359375 
Q 48.578125 11.96875 49.90625 9.96875 
Q 51.421875 7.625 52.984375 7.625 
L 57.328125 7.625 
L 55.859375 0 
L 50.4375 0 
Q 45.84375 0 42.53125 4.109375 
Q 40.96875 6.15625 40.921875 10.453125 
Q 37.75 5.21875 32.28125 0.78125 
Q 29.6875 -1.265625 22.703125 -1.21875 
Q 11.28125 -1.125 7.125 6.203125 
Q 2.875 13.8125 5.515625 27.296875 
Q 8.34375 41.796875 15.765625 48.390625 
Q 24.125 55.765625 33.84375 55.90625 
z
" id="DejaVuSans-Oblique-945"/>
     <path d="M 25.390625 72.90625 
L 33.6875 72.90625 
L 8.296875 -9.28125 
L 0 -9.28125 
z
" id="DejaVuSans-47"/>
     <path d="M 31 75.875 
Q 24.46875 64.65625 21.28125 53.65625 
Q 18.109375 42.671875 18.109375 31.390625 
Q 18.109375 20.125 21.3125 9.0625 
Q 24.515625 -2 31 -13.1875 
L 23.1875 -13.1875 
Q 15.875 -1.703125 12.234375 9.375 
Q 8.59375 20.453125 8.59375 31.390625 
Q 8.59375 42.28125 12.203125 53.3125 
Q 15.828125 64.359375 23.1875 75.875 
z
" id="DejaVuSans-40"/>
     <path d="M 49.609375 33.6875 
Q 49.609375 40.875 46.484375 44.671875 
Q 43.359375 48.484375 37.5 48.484375 
Q 33.5 48.484375 29.859375 46.4375 
Q 26.21875 44.390625 23.390625 40.484375 
Q 20.609375 36.625 18.9375 31.15625 
Q 17.28125 25.6875 17.28125 20.3125 
Q 17.28125 13.484375 20.40625 9.796875 
Q 23.53125 6.109375 29.296875 6.109375 
Q 33.546875 6.109375 37.1875 8.109375 
Q 40.828125 10.109375 43.40625 13.921875 
Q 46.1875 17.921875 47.890625 23.34375 
Q 49.609375 28.765625 49.609375 33.6875 
z
M 21.78125 46.390625 
Q 25.390625 51.125 30.296875 53.5625 
Q 35.203125 56 41.21875 56 
Q 49.609375 56 54.25 50.5 
Q 58.890625 45.015625 58.890625 35.109375 
Q 58.890625 27 56 19.65625 
Q 53.125 12.3125 47.703125 6.5 
Q 44.09375 2.640625 39.546875 0.609375 
Q 35.015625 -1.421875 29.984375 -1.421875 
Q 24.171875 -1.421875 20.21875 1 
Q 16.265625 3.421875 14.3125 8.203125 
L 8.6875 -20.796875 
L -0.296875 -20.796875 
L 14.40625 54.6875 
L 23.390625 54.6875 
z
" id="DejaVuSans-Oblique-112"/>
     <path d="M 25.203125 64.796875 
L 20.21875 38.921875 
L 32.90625 38.921875 
Q 40.375 38.921875 44.984375 43.046875 
Q 49.609375 47.171875 49.609375 53.8125 
Q 49.609375 59.125 46.5 61.953125 
Q 43.40625 64.796875 37.59375 64.796875 
z
M 43.3125 35.015625 
Q 46.4375 34.28125 48.515625 31.390625 
Q 50.59375 28.515625 53.328125 19.921875 
L 59.515625 0 
L 49.125 0 
L 43.40625 18.703125 
Q 41.21875 25.921875 38.328125 28.359375 
Q 35.453125 30.8125 29.5 30.8125 
L 18.609375 30.8125 
L 12.59375 0 
L 2.6875 0 
L 16.890625 72.90625 
L 39.109375 72.90625 
Q 49.21875 72.90625 54.609375 68.328125 
Q 60.015625 63.765625 60.015625 55.171875 
Q 60.015625 47.5625 55.421875 41.984375 
Q 50.828125 36.421875 43.3125 35.015625 
z
" id="DejaVuSans-Oblique-82"/>
     <path d="M 10.59375 45.40625 
L 73.1875 45.40625 
L 73.1875 37.203125 
L 10.59375 37.203125 
z
M 10.59375 25.484375 
L 73.1875 25.484375 
L 73.1875 17.1875 
L 10.59375 17.1875 
z
" id="DejaVuSans-61"/>
     <path d="M 40.578125 39.3125 
Q 47.65625 37.796875 51.625 33 
Q 55.609375 28.21875 55.609375 21.1875 
Q 55.609375 10.40625 48.1875 4.484375 
Q 40.765625 -1.421875 27.09375 -1.421875 
Q 22.515625 -1.421875 17.65625 -0.515625 
Q 12.796875 0.390625 7.625 2.203125 
L 7.625 11.71875 
Q 11.71875 9.328125 16.59375 8.109375 
Q 21.484375 6.890625 26.8125 6.890625 
Q 36.078125 6.890625 40.9375 10.546875 
Q 45.796875 14.203125 45.796875 21.1875 
Q 45.796875 27.640625 41.28125 31.265625 
Q 36.765625 34.90625 28.71875 34.90625 
L 20.21875 34.90625 
L 20.21875 43.015625 
L 29.109375 43.015625 
Q 36.375 43.015625 40.234375 45.921875 
Q 44.09375 48.828125 44.09375 54.296875 
Q 44.09375 59.90625 40.109375 62.90625 
Q 36.140625 65.921875 28.71875 65.921875 
Q 24.65625 65.921875 20.015625 65.03125 
Q 15.375 64.15625 9.8125 62.3125 
L 9.8125 71.09375 
Q 15.4375 72.65625 20.34375 73.4375 
Q 25.25 74.21875 29.59375 74.21875 
Q 40.828125 74.21875 47.359375 69.109375 
Q 53.90625 64.015625 53.90625 55.328125 
Q 53.90625 49.265625 50.4375 45.09375 
Q 46.96875 40.921875 40.578125 39.3125 
z
" id="DejaVuSans-51"/>
     <path d="M 11.71875 12.40625 
L 22.015625 12.40625 
L 22.015625 4 
L 14.015625 -11.625 
L 7.71875 -11.625 
L 11.71875 4 
z
" id="DejaVuSans-44"/>
     <path d="M 16.890625 72.90625 
L 58.6875 72.90625 
L 57.078125 64.59375 
L 25.09375 64.59375 
L 20.90625 43.109375 
L 49.8125 43.109375 
L 48.1875 34.8125 
L 19.28125 34.8125 
L 12.5 0 
L 2.6875 0 
z
" id="DejaVuSans-Oblique-70"/>
     <path d="M 8.015625 75.875 
L 15.828125 75.875 
Q 23.140625 64.359375 26.78125 53.3125 
Q 30.421875 42.28125 30.421875 31.390625 
Q 30.421875 20.453125 26.78125 9.375 
Q 23.140625 -1.703125 15.828125 -13.1875 
L 8.015625 -13.1875 
Q 14.5 -2 17.703125 9.0625 
Q 20.90625 20.125 20.90625 31.390625 
Q 20.90625 42.671875 17.703125 53.65625 
Q 14.5 64.65625 8.015625 75.875 
z
" id="DejaVuSans-41"/>
    </defs>
    <g transform="translate(108.363125 18)scale(0.12 -0.12)">
     <use transform="translate(0 0.684375)" xlink:href="#DejaVuSans-69"/>
     <use transform="translate(63.183594 0.684375)" xlink:href="#DejaVuSans-102"/>
     <use transform="translate(98.388672 0.684375)" xlink:href="#DejaVuSans-102"/>
     <use transform="translate(133.59375 0.684375)" xlink:href="#DejaVuSans-101"/>
     <use transform="translate(195.117188 0.684375)" xlink:href="#DejaVuSans-99"/>
     <use transform="translate(250.097656 0.684375)" xlink:href="#DejaVuSans-116"/>
     <use transform="translate(289.306641 0.684375)" xlink:href="#DejaVuSans-32"/>
     <use transform="translate(321.09375 0.684375)" xlink:href="#DejaVuSans-111"/>
     <use transform="translate(382.275391 0.684375)" xlink:href="#DejaVuSans-102"/>
     <use transform="translate(417.480469 0.684375)" xlink:href="#DejaVuSans-32"/>
     <use transform="translate(449.267578 0.684375)" xlink:href="#DejaVuSans-Oblique-945"/>
     <use transform="translate(515.185547 -15.721875)scale(0.7)" xlink:href="#DejaVuSans-49"/>
     <use transform="translate(559.72168 -15.721875)scale(0.7)" xlink:href="#DejaVuSans-47"/>
     <use transform="translate(583.272852 -15.721875)scale(0.7)" xlink:href="#DejaVuSans-50"/>
     <use transform="translate(630.543359 0.684375)" xlink:href="#DejaVuSans-32"/>
     <use transform="translate(662.330469 0.684375)" xlink:href="#DejaVuSans-32"/>
     <use transform="translate(694.117578 0.684375)" xlink:href="#DejaVuSans-40"/>
     <use transform="translate(733.13125 0.684375)" xlink:href="#DejaVuSans-Oblique-112"/>
     <use transform="translate(796.607813 -15.721875)scale(0.7)" xlink:href="#DejaVuSans-Oblique-82"/>
     <use transform="translate(847.979883 0.684375)" xlink:href="#DejaVuSans-47"/>
     <use transform="translate(881.671289 0.684375)" xlink:href="#DejaVuSans-Oblique-112"/>
     <use transform="translate(945.147852 -15.721875)scale(0.7)" xlink:href="#DejaVuSans-Oblique-80"/>
     <use transform="translate(990.094141 0.684375)" xlink:href="#DejaVuSans-61"/>
     <use transform="translate(1073.883203 0.684375)" xlink:href="#DejaVuSans-51"/>
     <use transform="translate(1137.50625 0.684375)" xlink:href="#DejaVuSans-48"/>
     <use transform="translate(1201.129297 0.684375)" xlink:href="#DejaVuSans-44"/>
     <use transform="translate(1232.916406 0.684375)" xlink:href="#DejaVuSans-32"/>
     <use transform="translate(1264.703516 0.684375)" xlink:href="#DejaVuSans-Oblique-120"/>
     <use transform="translate(1328.349349 38.965625)scale(0.7)" xlink:href="#DejaVuSans-Oblique-70"/>
     <use transform="translate(1323.883203 -26.659375)scale(0.7)" xlink:href="#DejaVuSans-49"/>
     <use transform="translate(1371.347396 0.684375)" xlink:href="#DejaVuSans-61"/>
     <use transform="translate(1455.136458 0.684375)" xlink:href="#DejaVuSans-32"/>
     <use transform="translate(1486.923568 0.684375)" xlink:href="#DejaVuSans-48"/>
     <use transform="translate(1550.546615 0.684375)" xlink:href="#DejaVuSans-46"/>
     <use transform="translate(1582.255599 0.684375)" xlink:href="#DejaVuSans-50"/>
     <use transform="translate(1645.878646 0.684375)" xlink:href="#DejaVuSans-49"/>
     <use transform="translate(1709.501693 0.684375)" xlink:href="#DejaVuSans-41"/>
    </g>
   </g>
   <g id="legend_1">
    <g id="patch_7">
     <path d="M 292.903125 106.492188 
L 373.703125 106.492188 
Q 375.703125 106.492188 375.703125 104.492188 
L 375.703125 31 
Q 375.703125 29 373.703125 29 
L 292.903125 29 
Q 290.903125 29 290.903125 31 
L 290.903125 104.492188 
Q 290.903125 106.492188 292.903125 106.492188 
z
" style="fill:#ffffff;opacity:0.8;stroke:#cccccc;stroke-linejoin:miter;"/>
    </g>
    <g id="line2d_17">
     <path d="M 294.903125 37.098438 
L 314.903125 37.098438 
" style="fill:none;stroke:#1f77b4;stroke-linecap:square;stroke-width:1.5;"/>
    </g>
    <g id="line2d_18"/>
    <g id="text_15">
     <!-- $α_{1/2}$= 5 -->
     <defs>
      <path d="M 10.796875 72.90625 
L 49.515625 72.90625 
L 49.515625 64.59375 
L 19.828125 64.59375 
L 19.828125 46.734375 
Q 21.96875 47.46875 24.109375 47.828125 
Q 26.265625 48.1875 28.421875 48.1875 
Q 40.625 48.1875 47.75 41.5 
Q 54.890625 34.8125 54.890625 23.390625 
Q 54.890625 11.625 47.5625 5.09375 
Q 40.234375 -1.421875 26.90625 -1.421875 
Q 22.3125 -1.421875 17.546875 -0.640625 
Q 12.796875 0.140625 7.71875 1.703125 
L 7.71875 11.625 
Q 12.109375 9.234375 16.796875 8.0625 
Q 21.484375 6.890625 26.703125 6.890625 
Q 35.15625 6.890625 40.078125 11.328125 
Q 45.015625 15.765625 45.015625 23.390625 
Q 45.015625 31 40.078125 35.4375 
Q 35.15625 39.890625 26.703125 39.890625 
Q 22.75 39.890625 18.8125 39.015625 
Q 14.890625 38.140625 10.796875 36.28125 
z
" id="DejaVuSans-53"/>
     </defs>
     <g transform="translate(322.903125 40.598438)scale(0.1 -0.1)">
      <use transform="translate(0 0.09375)" xlink:href="#DejaVuSans-Oblique-945"/>
      <use transform="translate(65.917969 -16.3125)scale(0.7)" xlink:href="#DejaVuSans-49"/>
      <use transform="translate(110.454102 -16.3125)scale(0.7)" xlink:href="#DejaVuSans-47"/>
      <use transform="translate(134.005273 -16.3125)scale(0.7)" xlink:href="#DejaVuSans-50"/>
      <use transform="translate(181.275781 0.09375)" xlink:href="#DejaVuSans-61"/>
      <use transform="translate(265.064844 0.09375)" xlink:href="#DejaVuSans-32"/>
      <use transform="translate(296.851953 0.09375)" xlink:href="#DejaVuSans-53"/>
     </g>
    </g>
    <g id="line2d_19">
     <path d="M 294.903125 51.996875 
L 314.903125 51.996875 
" style="fill:none;stroke:#ff7f0e;stroke-linecap:square;stroke-width:1.5;"/>
    </g>
    <g id="line2d_20"/>
    <g id="text_16">
     <!-- $α_{1/2}$= 10 -->
     <g transform="translate(322.903125 55.496875)scale(0.1 -0.1)">
      <use transform="translate(0 0.78125)" xlink:href="#DejaVuSans-Oblique-945"/>
      <use transform="translate(65.917969 -15.625)scale(0.7)" xlink:href="#DejaVuSans-49"/>
      <use transform="translate(110.454102 -15.625)scale(0.7)" xlink:href="#DejaVuSans-47"/>
      <use transform="translate(134.005273 -15.625)scale(0.7)" xlink:href="#DejaVuSans-50"/>
      <use transform="translate(181.275781 0.78125)" xlink:href="#DejaVuSans-61"/>
      <use transform="translate(265.064844 0.78125)" xlink:href="#DejaVuSans-32"/>
      <use transform="translate(296.851953 0.78125)" xlink:href="#DejaVuSans-49"/>
      <use transform="translate(360.475 0.78125)" xlink:href="#DejaVuSans-48"/>
     </g>
    </g>
    <g id="line2d_21">
     <path d="M 294.903125 66.895313 
L 314.903125 66.895313 
" style="fill:none;stroke:#2ca02c;stroke-linecap:square;stroke-width:1.5;"/>
    </g>
    <g id="line2d_22"/>
    <g id="text_17">
     <!-- $α_{1/2}$= 25 -->
     <g transform="translate(322.903125 70.395313)scale(0.1 -0.1)">
      <use transform="translate(0 0.78125)" xlink:href="#DejaVuSans-Oblique-945"/>
      <use transform="translate(65.917969 -15.625)scale(0.7)" xlink:href="#DejaVuSans-49"/>
      <use transform="translate(110.454102 -15.625)scale(0.7)" xlink:href="#DejaVuSans-47"/>
      <use transform="translate(134.005273 -15.625)scale(0.7)" xlink:href="#DejaVuSans-50"/>
      <use transform="translate(181.275781 0.78125)" xlink:href="#DejaVuSans-61"/>
      <use transform="translate(265.064844 0.78125)" xlink:href="#DejaVuSans-32"/>
      <use transform="translate(296.851953 0.78125)" xlink:href="#DejaVuSans-50"/>
      <use transform="translate(360.475 0.78125)" xlink:href="#DejaVuSans-53"/>
     </g>
    </g>
    <g id="line2d_23">
     <path d="M 294.903125 81.79375 
L 314.903125 81.79375 
" style="fill:none;stroke:#d62728;stroke-linecap:square;stroke-width:1.5;"/>
    </g>
    <g id="line2d_24"/>
    <g id="text_18">
     <!-- $α_{1/2}$= 75 -->
     <defs>
      <path d="M 8.203125 72.90625 
L 55.078125 72.90625 
L 55.078125 68.703125 
L 28.609375 0 
L 18.3125 0 
L 43.21875 64.59375 
L 8.203125 64.59375 
z
" id="DejaVuSans-55"/>
     </defs>
     <g transform="translate(322.903125 85.29375)scale(0.1 -0.1)">
      <use transform="translate(0 0.09375)" xlink:href="#DejaVuSans-Oblique-945"/>
      <use transform="translate(65.917969 -16.3125)scale(0.7)" xlink:href="#DejaVuSans-49"/>
      <use transform="translate(110.454102 -16.3125)scale(0.7)" xlink:href="#DejaVuSans-47"/>
      <use transform="translate(134.005273 -16.3125)scale(0.7)" xlink:href="#DejaVuSans-50"/>
      <use transform="translate(181.275781 0.09375)" xlink:href="#DejaVuSans-61"/>
      <use transform="translate(265.064844 0.09375)" xlink:href="#DejaVuSans-32"/>
      <use transform="translate(296.851953 0.09375)" xlink:href="#DejaVuSans-55"/>
      <use transform="translate(360.475 0.09375)" xlink:href="#DejaVuSans-53"/>
     </g>
    </g>
    <g id="line2d_25">
     <path d="M 294.903125 96.692188 
L 314.903125 96.692188 
" style="fill:none;stroke:#9467bd;stroke-linecap:square;stroke-width:1.5;"/>
    </g>
    <g id="line2d_26"/>
    <g id="text_19">
     <!-- $α_{1/2}$= 250 -->
     <g transform="translate(322.903125 100.192188)scale(0.1 -0.1)">
      <use transform="translate(0 0.78125)" xlink:href="#DejaVuSans-Oblique-945"/>
      <use transform="translate(65.917969 -15.625)scale(0.7)" xlink:href="#DejaVuSans-49"/>
      <use transform="translate(110.454102 -15.625)scale(0.7)" xlink:href="#DejaVuSans-47"/>
      <use transform="translate(134.005273 -15.625)scale(0.7)" xlink:href="#DejaVuSans-50"/>
      <use transform="translate(181.275781 0.78125)" xlink:href="#DejaVuSans-61"/>
      <use transform="translate(265.064844 0.78125)" xlink:href="#DejaVuSans-32"/>
      <use transform="translate(296.851953 0.78125)" xlink:href="#DejaVuSans-50"/>
      <use transform="translate(360.475 0.78125)" xlink:href="#DejaVuSans-53"/>
      <use transform="translate(424.098047 0.78125)" xlink:href="#DejaVuSans-48"/>
     </g>
    </g>
   </g>
  </g>
 </g>
 <defs>
  <clipPath id="p25ad81ce41">
   <rect height="217.44" width="334.8" x="45.903125" y="24"/>
  </clipPath>
 </defs>
</svg>
