<?xml version="1.0" encoding="utf-8" standalone="no"?>
<!DOCTYPE svg PUBLIC "-//W3C//DTD SVG 1.1//EN"
  "http://www.w3.org/Graphics/SVG/1.1/DTD/svg11.dtd">
<!-- Created with matplotlib (https://matplotlib.org/) -->
<svg height="278.99625pt" version="1.1" viewBox="0 0 387.903125 278.99625" width="387.903125pt" xmlns="http://www.w3.org/2000/svg" xmlns:xlink="http://www.w3.org/1999/xlink">
 <defs>
  <style type="text/css">
*{stroke-linecap:butt;stroke-linejoin:round;}
  </style>
 </defs>
 <g id="figure_1">
  <g id="patch_1">
   <path d="M 0 278.99625 
L 387.903125 278.99625 
L 387.903125 0 
L 0 0 
z
" style="fill:none;"/>
  </g>
  <g id="axes_1">
   <g id="patch_2">
    <path d="M 45.903125 241.44 
L 380.703125 241.44 
L 380.703125 24 
L 45.903125 24 
z
" style="fill:#ffffff;"/>
   </g>
   <g id="matplotlib.axis_1">
    <g id="xtick_1">
     <g id="line2d_1">
      <defs>
       <path d="M 0 0 
L 0 3.5 
" id="maa795ab100" style="stroke:#000000;stroke-width:0.8;"/>
      </defs>
      <g>
       <use style="stroke:#000000;stroke-width:0.8;" x="45.903125" xlink:href="#maa795ab100" y="241.44"/>
      </g>
     </g>
     <g id="text_1">
      <!-- 0.0 -->
      <defs>
       <path d="M 31.78125 66.40625 
Q 24.171875 66.40625 20.328125 58.90625 
Q 16.5 51.421875 16.5 36.375 
Q 16.5 21.390625 20.328125 13.890625 
Q 24.171875 6.390625 31.78125 6.390625 
Q 39.453125 6.390625 43.28125 13.890625 
Q 47.125 21.390625 47.125 36.375 
Q 47.125 51.421875 43.28125 58.90625 
Q 39.453125 66.40625 31.78125 66.40625 
z
M 31.78125 74.21875 
Q 44.046875 74.21875 50.515625 64.515625 
Q 56.984375 54.828125 56.984375 36.375 
Q 56.984375 17.96875 50.515625 8.265625 
Q 44.046875 -1.421875 31.78125 -1.421875 
Q 19.53125 -1.421875 13.0625 8.265625 
Q 6.59375 17.96875 6.59375 36.375 
Q 6.59375 54.828125 13.0625 64.515625 
Q 19.53125 74.21875 31.78125 74.21875 
z
" id="DejaVuSans-48"/>
       <path d="M 10.6875 12.40625 
L 21 12.40625 
L 21 0 
L 10.6875 0 
z
" id="DejaVuSans-46"/>
      </defs>
      <g transform="translate(37.951563 256.038438)scale(0.1 -0.1)">
       <use xlink:href="#DejaVuSans-48"/>
       <use x="63.623047" xlink:href="#DejaVuSans-46"/>
       <use x="95.410156" xlink:href="#DejaVuSans-48"/>
      </g>
     </g>
    </g>
    <g id="xtick_2">
     <g id="line2d_2">
      <g>
       <use style="stroke:#000000;stroke-width:0.8;" x="116.387336" xlink:href="#maa795ab100" y="241.44"/>
      </g>
     </g>
     <g id="text_2">
      <!-- 0.2 -->
      <defs>
       <path d="M 19.1875 8.296875 
L 53.609375 8.296875 
L 53.609375 0 
L 7.328125 0 
L 7.328125 8.296875 
Q 12.9375 14.109375 22.625 23.890625 
Q 32.328125 33.6875 34.8125 36.53125 
Q 39.546875 41.84375 41.421875 45.53125 
Q 43.3125 49.21875 43.3125 52.78125 
Q 43.3125 58.59375 39.234375 62.25 
Q 35.15625 65.921875 28.609375 65.921875 
Q 23.96875 65.921875 18.8125 64.3125 
Q 13.671875 62.703125 7.8125 59.421875 
L 7.8125 69.390625 
Q 13.765625 71.78125 18.9375 73 
Q 24.125 74.21875 28.421875 74.21875 
Q 39.75 74.21875 46.484375 68.546875 
Q 53.21875 62.890625 53.21875 53.421875 
Q 53.21875 48.921875 51.53125 44.890625 
Q 49.859375 40.875 45.40625 35.40625 
Q 44.1875 33.984375 37.640625 27.21875 
Q 31.109375 20.453125 19.1875 8.296875 
z
" id="DejaVuSans-50"/>
      </defs>
      <g transform="translate(108.435773 256.038438)scale(0.1 -0.1)">
       <use xlink:href="#DejaVuSans-48"/>
       <use x="63.623047" xlink:href="#DejaVuSans-46"/>
       <use x="95.410156" xlink:href="#DejaVuSans-50"/>
      </g>
     </g>
    </g>
    <g id="xtick_3">
     <g id="line2d_3">
      <g>
       <use style="stroke:#000000;stroke-width:0.8;" x="186.871546" xlink:href="#maa795ab100" y="241.44"/>
      </g>
     </g>
     <g id="text_3">
      <!-- 0.4 -->
      <defs>
       <path d="M 37.796875 64.3125 
L 12.890625 25.390625 
L 37.796875 25.390625 
z
M 35.203125 72.90625 
L 47.609375 72.90625 
L 47.609375 25.390625 
L 58.015625 25.390625 
L 58.015625 17.1875 
L 47.609375 17.1875 
L 47.609375 0 
L 37.796875 0 
L 37.796875 17.1875 
L 4.890625 17.1875 
L 4.890625 26.703125 
z
" id="DejaVuSans-52"/>
      </defs>
      <g transform="translate(178.919984 256.038438)scale(0.1 -0.1)">
       <use xlink:href="#DejaVuSans-48"/>
       <use x="63.623047" xlink:href="#DejaVuSans-46"/>
       <use x="95.410156" xlink:href="#DejaVuSans-52"/>
      </g>
     </g>
    </g>
    <g id="xtick_4">
     <g id="line2d_4">
      <g>
       <use style="stroke:#000000;stroke-width:0.8;" x="257.355757" xlink:href="#maa795ab100" y="241.44"/>
      </g>
     </g>
     <g id="text_4">
      <!-- 0.6 -->
      <defs>
       <path d="M 33.015625 40.375 
Q 26.375 40.375 22.484375 35.828125 
Q 18.609375 31.296875 18.609375 23.390625 
Q 18.609375 15.53125 22.484375 10.953125 
Q 26.375 6.390625 33.015625 6.390625 
Q 39.65625 6.390625 43.53125 10.953125 
Q 47.40625 15.53125 47.40625 23.390625 
Q 47.40625 31.296875 43.53125 35.828125 
Q 39.65625 40.375 33.015625 40.375 
z
M 52.59375 71.296875 
L 52.59375 62.3125 
Q 48.875 64.0625 45.09375 64.984375 
Q 41.3125 65.921875 37.59375 65.921875 
Q 27.828125 65.921875 22.671875 59.328125 
Q 17.53125 52.734375 16.796875 39.40625 
Q 19.671875 43.65625 24.015625 45.921875 
Q 28.375 48.1875 33.59375 48.1875 
Q 44.578125 48.1875 50.953125 41.515625 
Q 57.328125 34.859375 57.328125 23.390625 
Q 57.328125 12.15625 50.6875 5.359375 
Q 44.046875 -1.421875 33.015625 -1.421875 
Q 20.359375 -1.421875 13.671875 8.265625 
Q 6.984375 17.96875 6.984375 36.375 
Q 6.984375 53.65625 15.1875 63.9375 
Q 23.390625 74.21875 37.203125 74.21875 
Q 40.921875 74.21875 44.703125 73.484375 
Q 48.484375 72.75 52.59375 71.296875 
z
" id="DejaVuSans-54"/>
      </defs>
      <g transform="translate(249.404194 256.038438)scale(0.1 -0.1)">
       <use xlink:href="#DejaVuSans-48"/>
       <use x="63.623047" xlink:href="#DejaVuSans-46"/>
       <use x="95.410156" xlink:href="#DejaVuSans-54"/>
      </g>
     </g>
    </g>
    <g id="xtick_5">
     <g id="line2d_5">
      <g>
       <use style="stroke:#000000;stroke-width:0.8;" x="327.839967" xlink:href="#maa795ab100" y="241.44"/>
      </g>
     </g>
     <g id="text_5">
      <!-- 0.8 -->
      <defs>
       <path d="M 31.78125 34.625 
Q 24.75 34.625 20.71875 30.859375 
Q 16.703125 27.09375 16.703125 20.515625 
Q 16.703125 13.921875 20.71875 10.15625 
Q 24.75 6.390625 31.78125 6.390625 
Q 38.8125 6.390625 42.859375 10.171875 
Q 46.921875 13.96875 46.921875 20.515625 
Q 46.921875 27.09375 42.890625 30.859375 
Q 38.875 34.625 31.78125 34.625 
z
M 21.921875 38.8125 
Q 15.578125 40.375 12.03125 44.71875 
Q 8.5 49.078125 8.5 55.328125 
Q 8.5 64.0625 14.71875 69.140625 
Q 20.953125 74.21875 31.78125 74.21875 
Q 42.671875 74.21875 48.875 69.140625 
Q 55.078125 64.0625 55.078125 55.328125 
Q 55.078125 49.078125 51.53125 44.71875 
Q 48 40.375 41.703125 38.8125 
Q 48.828125 37.15625 52.796875 32.3125 
Q 56.78125 27.484375 56.78125 20.515625 
Q 56.78125 9.90625 50.3125 4.234375 
Q 43.84375 -1.421875 31.78125 -1.421875 
Q 19.734375 -1.421875 13.25 4.234375 
Q 6.78125 9.90625 6.78125 20.515625 
Q 6.78125 27.484375 10.78125 32.3125 
Q 14.796875 37.15625 21.921875 38.8125 
z
M 18.3125 54.390625 
Q 18.3125 48.734375 21.84375 45.5625 
Q 25.390625 42.390625 31.78125 42.390625 
Q 38.140625 42.390625 41.71875 45.5625 
Q 45.3125 48.734375 45.3125 54.390625 
Q 45.3125 60.0625 41.71875 63.234375 
Q 38.140625 66.40625 31.78125 66.40625 
Q 25.390625 66.40625 21.84375 63.234375 
Q 18.3125 60.0625 18.3125 54.390625 
z
" id="DejaVuSans-56"/>
      </defs>
      <g transform="translate(319.888405 256.038438)scale(0.1 -0.1)">
       <use xlink:href="#DejaVuSans-48"/>
       <use x="63.623047" xlink:href="#DejaVuSans-46"/>
       <use x="95.410156" xlink:href="#DejaVuSans-56"/>
      </g>
     </g>
    </g>
    <g id="text_6">
     <!-- $\Theta$ -->
     <defs>
      <path d="M 22.125 42.96875 
L 56.59375 42.96875 
L 56.59375 34.671875 
L 22.125 34.671875 
z
M 39.40625 66.21875 
Q 28.65625 66.21875 22.359375 58.203125 
Q 16.015625 50.203125 16.015625 36.375 
Q 16.015625 22.609375 22.328125 14.59375 
Q 28.65625 6.59375 39.40625 6.59375 
Q 50.140625 6.59375 56.453125 14.59375 
Q 62.703125 22.609375 62.703125 36.375 
Q 62.703125 50.203125 56.453125 58.203125 
Q 50.140625 66.21875 39.40625 66.21875 
z
M 39.40625 74.21875 
Q 54.734375 74.21875 63.90625 63.9375 
Q 73.09375 53.65625 73.09375 36.375 
Q 73.09375 19.140625 63.921875 8.890625 
Q 54.734375 -1.421875 39.40625 -1.421875 
Q 24.03125 -1.421875 14.84375 8.84375 
Q 5.609375 19.09375 5.609375 36.375 
Q 5.609375 53.65625 14.84375 63.96875 
Q 24.03125 74.21875 39.40625 74.21875 
z
" id="DejaVuSans-920"/>
     </defs>
     <g transform="translate(209.353125 269.716563)scale(0.1 -0.1)">
      <use transform="translate(0 0.78125)" xlink:href="#DejaVuSans-920"/>
     </g>
    </g>
   </g>
   <g id="matplotlib.axis_2">
    <g id="ytick_1">
     <g id="line2d_6">
      <defs>
       <path d="M 0 0 
L -3.5 0 
" id="m25070454fd" style="stroke:#000000;stroke-width:0.8;"/>
      </defs>
      <g>
       <use style="stroke:#000000;stroke-width:0.8;" x="45.903125" xlink:href="#m25070454fd" y="241.44"/>
      </g>
     </g>
     <g id="text_7">
      <!-- 0.0 -->
      <g transform="translate(23 245.239219)scale(0.1 -0.1)">
       <use xlink:href="#DejaVuSans-48"/>
       <use x="63.623047" xlink:href="#DejaVuSans-46"/>
       <use x="95.410156" xlink:href="#DejaVuSans-48"/>
      </g>
     </g>
    </g>
    <g id="ytick_2">
     <g id="line2d_7">
      <g>
       <use style="stroke:#000000;stroke-width:0.8;" x="45.903125" xlink:href="#m25070454fd" y="197.952"/>
      </g>
     </g>
     <g id="text_8">
      <!-- 0.2 -->
      <g transform="translate(23 201.751219)scale(0.1 -0.1)">
       <use xlink:href="#DejaVuSans-48"/>
       <use x="63.623047" xlink:href="#DejaVuSans-46"/>
       <use x="95.410156" xlink:href="#DejaVuSans-50"/>
      </g>
     </g>
    </g>
    <g id="ytick_3">
     <g id="line2d_8">
      <g>
       <use style="stroke:#000000;stroke-width:0.8;" x="45.903125" xlink:href="#m25070454fd" y="154.464"/>
      </g>
     </g>
     <g id="text_9">
      <!-- 0.4 -->
      <g transform="translate(23 158.263219)scale(0.1 -0.1)">
       <use xlink:href="#DejaVuSans-48"/>
       <use x="63.623047" xlink:href="#DejaVuSans-46"/>
       <use x="95.410156" xlink:href="#DejaVuSans-52"/>
      </g>
     </g>
    </g>
    <g id="ytick_4">
     <g id="line2d_9">
      <g>
       <use style="stroke:#000000;stroke-width:0.8;" x="45.903125" xlink:href="#m25070454fd" y="110.976"/>
      </g>
     </g>
     <g id="text_10">
      <!-- 0.6 -->
      <g transform="translate(23 114.775219)scale(0.1 -0.1)">
       <use xlink:href="#DejaVuSans-48"/>
       <use x="63.623047" xlink:href="#DejaVuSans-46"/>
       <use x="95.410156" xlink:href="#DejaVuSans-54"/>
      </g>
     </g>
    </g>
    <g id="ytick_5">
     <g id="line2d_10">
      <g>
       <use style="stroke:#000000;stroke-width:0.8;" x="45.903125" xlink:href="#m25070454fd" y="67.488"/>
      </g>
     </g>
     <g id="text_11">
      <!-- 0.8 -->
      <g transform="translate(23 71.287219)scale(0.1 -0.1)">
       <use xlink:href="#DejaVuSans-48"/>
       <use x="63.623047" xlink:href="#DejaVuSans-46"/>
       <use x="95.410156" xlink:href="#DejaVuSans-56"/>
      </g>
     </g>
    </g>
    <g id="ytick_6">
     <g id="line2d_11">
      <g>
       <use style="stroke:#000000;stroke-width:0.8;" x="45.903125" xlink:href="#m25070454fd" y="24"/>
      </g>
     </g>
     <g id="text_12">
      <!-- 1.0 -->
      <defs>
       <path d="M 12.40625 8.296875 
L 28.515625 8.296875 
L 28.515625 63.921875 
L 10.984375 60.40625 
L 10.984375 69.390625 
L 28.421875 72.90625 
L 38.28125 72.90625 
L 38.28125 8.296875 
L 54.390625 8.296875 
L 54.390625 0 
L 12.40625 0 
z
" id="DejaVuSans-49"/>
      </defs>
      <g transform="translate(23 27.799219)scale(0.1 -0.1)">
       <use xlink:href="#DejaVuSans-49"/>
       <use x="63.623047" xlink:href="#DejaVuSans-46"/>
       <use x="95.410156" xlink:href="#DejaVuSans-48"/>
      </g>
     </g>
    </g>
    <g id="text_13">
     <!-- $x_1^P$ -->
     <defs>
      <path d="M 60.015625 54.6875 
L 34.90625 27.875 
L 50.296875 0 
L 39.984375 0 
L 28.421875 21.6875 
L 8.296875 0 
L -2.59375 0 
L 24.3125 28.8125 
L 10.015625 54.6875 
L 20.3125 54.6875 
L 30.8125 34.90625 
L 49.125 54.6875 
z
" id="DejaVuSans-Oblique-120"/>
      <path d="M 16.890625 72.90625 
L 39.703125 72.90625 
Q 49.65625 72.90625 54.875 68.265625 
Q 60.109375 63.625 60.109375 54.6875 
Q 60.109375 42.671875 52.390625 35.984375 
Q 44.671875 29.296875 30.71875 29.296875 
L 18.3125 29.296875 
L 12.59375 0 
L 2.6875 0 
z
M 25.203125 64.796875 
L 19.921875 37.40625 
L 32.328125 37.40625 
Q 40.71875 37.40625 45.203125 41.703125 
Q 49.703125 46 49.703125 54 
Q 49.703125 59.125 46.65625 61.953125 
Q 43.609375 64.796875 38.09375 64.796875 
z
" id="DejaVuSans-Oblique-80"/>
     </defs>
     <g transform="translate(16.2 138.17)rotate(-90)scale(0.1 -0.1)">
      <use transform="translate(0 0.684375)" xlink:href="#DejaVuSans-Oblique-120"/>
      <use transform="translate(63.645833 38.965625)scale(0.7)" xlink:href="#DejaVuSans-Oblique-80"/>
      <use transform="translate(59.179688 -26.659375)scale(0.7)" xlink:href="#DejaVuSans-49"/>
     </g>
    </g>
   </g>
   <g id="line2d_12">
    <path clip-path="url(#p79d6b70daa)" d="M 45.903125 155.640056 
L 49.284943 156.332938 
L 52.666761 157.015772 
L 56.04858 157.688737 
L 59.430398 158.35201 
L 62.812216 159.005765 
L 66.194034 159.650173 
L 69.575852 160.285404 
L 72.95767 160.911624 
L 76.339489 161.528996 
L 79.721307 162.137683 
L 83.103125 162.737842 
L 86.484943 163.329629 
L 89.866761 163.913196 
L 93.24858 164.488694 
L 96.630398 165.05627 
L 100.012216 165.616069 
L 103.394034 166.168233 
L 106.775852 166.712901 
L 110.15767 167.250208 
L 113.539489 167.78029 
L 116.921307 168.303277 
L 120.303125 168.819299 
L 123.684943 169.32848 
L 127.066761 169.830944 
L 130.44858 170.326813 
L 133.830398 170.816206 
L 137.212216 171.299237 
L 140.594034 171.776022 
L 143.975852 172.246671 
L 147.35767 172.711293 
L 150.739489 173.169996 
L 154.121307 173.622885 
L 157.503125 174.070061 
L 160.884943 174.511625 
L 164.266761 174.947675 
L 167.64858 175.378309 
L 171.030398 175.803619 
L 174.412216 176.223699 
L 177.794034 176.638638 
L 181.175852 177.048526 
L 184.55767 177.453449 
L 187.939489 177.853491 
L 191.321307 178.248736 
L 194.703125 178.639266 
L 198.084943 179.025159 
L 201.466761 179.406495 
L 204.84858 179.78335 
L 208.230398 180.155797 
L 211.612216 180.523912 
L 214.994034 180.887765 
L 218.375852 181.247427 
L 221.75767 181.602967 
L 225.139489 181.954453 
L 228.521307 182.30195 
L 231.903125 182.645523 
L 235.284943 182.985237 
L 238.666761 183.321152 
L 242.04858 183.653331 
L 245.430398 183.981832 
L 248.812216 184.306714 
L 252.194034 184.628035 
L 255.575852 184.945852 
L 258.95767 185.260218 
L 262.339489 185.571187 
L 265.721307 185.878814 
L 269.103125 186.18315 
L 272.484943 186.484245 
L 275.866761 186.78215 
L 279.24858 187.076914 
L 282.630398 187.368584 
L 286.012216 187.657207 
L 289.394034 187.94283 
L 292.775852 188.225497 
L 296.15767 188.505254 
L 299.539489 188.782144 
L 302.921307 189.056208 
L 306.303125 189.32749 
L 309.684943 189.596031 
L 313.066761 189.86187 
L 316.44858 190.125047 
L 319.830398 190.385601 
L 323.212216 190.64357 
L 326.594034 190.898991 
L 329.975852 191.151901 
L 333.35767 191.402337 
L 336.739489 191.650333 
L 340.121307 191.895923 
L 343.503125 192.139143 
L 346.884943 192.380026 
L 350.266761 192.618604 
L 353.64858 192.854909 
L 357.030398 193.088974 
L 360.412216 193.320828 
L 363.794034 193.550504 
L 367.175852 193.778031 
L 370.55767 194.003437 
L 373.939489 194.226753 
L 377.321307 194.448007 
L 380.703125 194.667226 
" style="fill:none;stroke:#1f77b4;stroke-linecap:square;stroke-width:1.5;"/>
   </g>
   <g id="line2d_13">
    <path clip-path="url(#p79d6b70daa)" d="M 45.903125 88.490178 
L 49.284943 90.549013 
L 52.666761 92.632025 
L 56.04858 94.733446 
L 59.430398 96.84748 
L 62.812216 98.968415 
L 66.194034 101.090716 
L 69.575852 103.209109 
L 72.95767 105.318648 
L 76.339489 107.414768 
L 79.721307 109.493313 
L 83.103125 111.550563 
L 86.484943 113.583235 
L 89.866761 115.588477 
L 93.24858 117.563856 
L 96.630398 119.507336 
L 100.012216 121.417251 
L 103.394034 123.292273 
L 106.775852 125.131388 
L 110.15767 126.933856 
L 113.539489 128.69919 
L 116.921307 130.427116 
L 120.303125 132.117553 
L 123.684943 133.770587 
L 127.066761 135.38644 
L 130.44858 136.965459 
L 133.830398 138.508088 
L 137.212216 140.014856 
L 140.594034 141.486359 
L 143.975852 142.92325 
L 147.35767 144.326223 
L 150.739489 145.696005 
L 154.121307 147.033351 
L 157.503125 148.339027 
L 160.884943 149.613815 
L 164.266761 150.858498 
L 167.64858 152.073861 
L 171.030398 153.260686 
L 174.412216 154.419748 
L 177.794034 155.55181 
L 181.175852 156.657627 
L 184.55767 157.737938 
L 187.939489 158.79347 
L 191.321307 159.824931 
L 194.703125 160.833014 
L 198.084943 161.818395 
L 201.466761 162.781731 
L 204.84858 163.723663 
L 208.230398 164.644812 
L 211.612216 165.545782 
L 214.994034 166.42716 
L 218.375852 167.289512 
L 221.75767 168.13339 
L 225.139489 168.959328 
L 228.521307 169.767842 
L 231.903125 170.559431 
L 235.284943 171.334581 
L 238.666761 172.093758 
L 242.04858 172.837417 
L 245.430398 173.565995 
L 248.812216 174.279916 
L 252.194034 174.97959 
L 255.575852 175.665413 
L 258.95767 176.337768 
L 262.339489 176.997026 
L 265.721307 177.643546 
L 269.103125 178.277672 
L 272.484943 178.899741 
L 275.866761 179.510077 
L 279.24858 180.108992 
L 282.630398 180.69679 
L 286.012216 181.273765 
L 289.394034 181.840199 
L 292.775852 182.396368 
L 296.15767 182.942536 
L 299.539489 183.478962 
L 302.921307 184.005893 
L 306.303125 184.523571 
L 309.684943 185.032229 
L 313.066761 185.532093 
L 316.44858 186.023381 
L 319.830398 186.506305 
L 323.212216 186.98107 
L 326.594034 187.447876 
L 329.975852 187.906915 
L 333.35767 188.358374 
L 336.739489 188.802434 
L 340.121307 189.23927 
L 343.503125 189.669053 
L 346.884943 190.091949 
L 350.266761 190.508116 
L 353.64858 190.917712 
L 357.030398 191.320886 
L 360.412216 191.717784 
L 363.794034 192.10855 
L 367.175852 192.493322 
L 370.55767 192.872232 
L 373.939489 193.245412 
L 377.321307 193.612987 
L 380.703125 193.975081 
" style="fill:none;stroke:#ff7f0e;stroke-linecap:square;stroke-width:1.5;"/>
   </g>
   <g id="line2d_14">
    <path clip-path="url(#p79d6b70daa)" d="M 45.903125 65.874589 
L 49.284943 67.447362 
L 52.666761 69.095756 
L 56.04858 70.820461 
L 59.430398 72.621424 
L 62.812216 74.497737 
L 66.194034 76.447557 
L 69.575852 78.468045 
L 72.95767 80.555344 
L 76.339489 82.704592 
L 79.721307 84.909993 
L 83.103125 87.164914 
L 86.484943 89.46204 
L 89.866761 91.793542 
L 93.24858 94.151283 
L 96.630398 96.527011 
L 100.012216 98.912559 
L 103.394034 101.300025 
L 106.775852 103.681916 
L 110.15767 106.051277 
L 113.539489 108.401771 
L 116.921307 110.727735 
L 120.303125 113.024204 
L 123.684943 115.286914 
L 127.066761 117.512273 
L 130.44858 119.697331 
L 133.830398 121.839734 
L 137.212216 123.937664 
L 140.594034 125.989792 
L 143.975852 127.995217 
L 147.35767 129.95341 
L 150.739489 131.864169 
L 154.121307 133.727563 
L 157.503125 135.543896 
L 160.884943 137.313663 
L 164.266761 139.037517 
L 167.64858 140.716241 
L 171.030398 142.350717 
L 174.412216 143.941909 
L 177.794034 145.490837 
L 181.175852 146.998566 
L 184.55767 148.46619 
L 187.939489 149.894817 
L 191.321307 151.285565 
L 194.703125 152.639551 
L 198.084943 153.957884 
L 201.466761 155.241659 
L 204.84858 156.491955 
L 208.230398 157.70983 
L 211.612216 158.896318 
L 214.994034 160.052429 
L 218.375852 161.179145 
L 221.75767 162.27742 
L 225.139489 163.348182 
L 228.521307 164.392327 
L 231.903125 165.410724 
L 235.284943 166.404212 
L 238.666761 167.373602 
L 242.04858 168.319679 
L 245.430398 169.243197 
L 248.812216 170.144885 
L 252.194034 171.025445 
L 255.575852 171.885556 
L 258.95767 172.725869 
L 262.339489 173.547011 
L 265.721307 174.34959 
L 269.103125 175.134187 
L 272.484943 175.901363 
L 275.866761 176.651659 
L 279.24858 177.385595 
L 282.630398 178.103672 
L 286.012216 178.806373 
L 289.394034 179.494163 
L 292.775852 180.167488 
L 296.15767 180.82678 
L 299.539489 181.472454 
L 302.921307 182.104911 
L 306.303125 182.724535 
L 309.684943 183.331699 
L 313.066761 183.92676 
L 316.44858 184.510065 
L 319.830398 185.081945 
L 323.212216 185.642723 
L 326.594034 186.192708 
L 329.975852 186.732198 
L 333.35767 187.261483 
L 336.739489 187.780841 
L 340.121307 188.290541 
L 343.503125 188.790841 
L 346.884943 189.281994 
L 350.266761 189.764241 
L 353.64858 190.237816 
L 357.030398 190.702945 
L 360.412216 191.159847 
L 363.794034 191.608734 
L 367.175852 192.04981 
L 370.55767 192.483272 
L 373.939489 192.909312 
L 377.321307 193.328115 
L 380.703125 193.73986 
" style="fill:none;stroke:#2ca02c;stroke-linecap:square;stroke-width:1.5;"/>
   </g>
   <g id="line2d_15">
    <path clip-path="url(#p79d6b70daa)" d="M 45.903125 56.060289 
L 49.284943 57.203176 
L 52.666761 58.411819 
L 56.04858 59.689936 
L 59.430398 61.041194 
L 62.812216 62.469126 
L 66.194034 63.977024 
L 69.575852 65.567816 
L 72.95767 67.243921 
L 76.339489 69.007099 
L 79.721307 70.85828 
L 83.103125 72.79741 
L 86.484943 74.823297 
L 89.866761 76.933497 
L 93.24858 79.124231 
L 96.630398 81.390366 
L 100.012216 83.725459 
L 103.394034 86.121864 
L 106.775852 88.570919 
L 110.15767 91.063167 
L 113.539489 93.588634 
L 116.921307 96.137116 
L 120.303125 98.698458 
L 123.684943 101.262817 
L 127.066761 103.820885 
L 130.44858 106.364058 
L 133.830398 108.884564 
L 137.212216 111.375532 
L 140.594034 113.831023 
L 143.975852 116.246019 
L 147.35767 118.616389 
L 150.739489 120.938827 
L 154.121307 123.210782 
L 157.503125 125.43038 
L 160.884943 127.596346 
L 164.266761 129.707919 
L 167.64858 131.764785 
L 171.030398 133.767002 
L 174.412216 135.71494 
L 177.794034 137.609225 
L 181.175852 139.450689 
L 184.55767 141.240329 
L 187.939489 142.979269 
L 191.321307 144.668729 
L 194.703125 146.31 
L 198.084943 147.90442 
L 201.466761 149.453358 
L 204.84858 150.958195 
L 208.230398 152.420317 
L 211.612216 153.841098 
L 214.994034 155.221899 
L 218.375852 156.564058 
L 221.75767 157.868885 
L 225.139489 159.137659 
L 228.521307 160.371626 
L 231.903125 161.571993 
L 235.284943 162.739933 
L 238.666761 163.876579 
L 242.04858 164.983027 
L 245.430398 166.060334 
L 248.812216 167.109518 
L 252.194034 168.13156 
L 255.575852 169.127404 
L 258.95767 170.09796 
L 262.339489 171.044101 
L 265.721307 171.966665 
L 269.103125 172.86646 
L 272.484943 173.74426 
L 275.866761 174.600809 
L 279.24858 175.436821 
L 282.630398 176.252984 
L 286.012216 177.049955 
L 289.394034 177.828368 
L 292.775852 178.588829 
L 296.15767 179.331922 
L 299.539489 180.058208 
L 302.921307 180.768224 
L 306.303125 181.462488 
L 309.684943 182.141496 
L 313.066761 182.805725 
L 316.44858 183.455635 
L 319.830398 184.091667 
L 323.212216 184.714245 
L 326.594034 185.323776 
L 329.975852 185.920654 
L 333.35767 186.505255 
L 336.739489 187.077943 
L 340.121307 187.639067 
L 343.503125 188.188966 
L 346.884943 188.727962 
L 350.266761 189.256368 
L 353.64858 189.774486 
L 357.030398 190.282605 
L 360.412216 190.781005 
L 363.794034 191.269956 
L 367.175852 191.749718 
L 370.55767 192.220542 
L 373.939489 192.68267 
L 377.321307 193.136336 
L 380.703125 193.581766 
" style="fill:none;stroke:#d62728;stroke-linecap:square;stroke-width:1.5;"/>
   </g>
   <g id="line2d_16">
    <path clip-path="url(#p79d6b70daa)" d="M 45.903125 53.451758 
L 49.284943 54.470088 
L 52.666761 55.547878 
L 56.04858 56.68897 
L 59.430398 57.897307 
L 62.812216 59.17688 
L 66.194034 60.531661 
L 69.575852 61.965511 
L 72.95767 63.482073 
L 76.339489 65.084637 
L 79.721307 66.775989 
L 83.103125 68.558237 
L 86.484943 70.432631 
L 89.866761 72.399377 
L 93.24858 74.45747 
L 96.630398 76.604544 
L 100.012216 78.836781 
L 103.394034 81.148873 
L 106.775852 83.534057 
L 110.15767 85.984238 
L 113.539489 88.490178 
L 116.921307 91.041753 
L 120.303125 93.628261 
L 123.684943 96.23874 
L 127.066761 98.862291 
L 130.44858 101.488366 
L 133.830398 104.107019 
L 137.212216 106.709094 
L 140.594034 109.286359 
L 143.975852 111.831582 
L 147.35767 114.338554 
L 150.739489 116.802079 
L 154.121307 119.217917 
L 157.503125 121.582725 
L 160.884943 123.893965 
L 164.266761 126.149822 
L 167.64858 128.34911 
L 171.030398 130.491184 
L 174.412216 132.575859 
L 177.794034 134.603337 
L 181.175852 136.574135 
L 184.55767 138.489028 
L 187.939489 140.348996 
L 191.321307 142.155182 
L 194.703125 143.908849 
L 198.084943 145.611352 
L 201.466761 147.264108 
L 204.84858 148.868575 
L 208.230398 150.426234 
L 211.612216 151.938572 
L 214.994034 153.407072 
L 218.375852 154.8332 
L 221.75767 156.218402 
L 225.139489 157.564093 
L 228.521307 158.871656 
L 231.903125 160.142436 
L 235.284943 161.37774 
L 238.666761 162.578834 
L 242.04858 163.746942 
L 245.430398 164.883246 
L 248.812216 165.988884 
L 252.194034 167.064955 
L 255.575852 168.112514 
L 258.95767 169.132578 
L 262.339489 170.126122 
L 265.721307 171.094084 
L 269.103125 172.037364 
L 272.484943 172.956826 
L 275.866761 173.853299 
L 279.24858 174.727579 
L 282.630398 175.580429 
L 286.012216 176.412582 
L 289.394034 177.224739 
L 292.775852 178.017575 
L 296.15767 178.791735 
L 299.539489 179.54784 
L 302.921307 180.286485 
L 306.303125 181.008241 
L 309.684943 181.713656 
L 313.066761 182.403256 
L 316.44858 183.077546 
L 319.830398 183.737012 
L 323.212216 184.382119 
L 326.594034 185.013315 
L 329.975852 185.631029 
L 333.35767 186.235677 
L 336.739489 186.827654 
L 340.121307 187.407343 
L 343.503125 187.975113 
L 346.884943 188.531315 
L 350.266761 189.076292 
L 353.64858 189.61037 
L 357.030398 190.133866 
L 360.412216 190.647082 
L 363.794034 191.150312 
L 367.175852 191.643837 
L 370.55767 192.12793 
L 373.939489 192.602853 
L 377.321307 193.068858 
L 380.703125 193.526189 
" style="fill:none;stroke:#9467bd;stroke-linecap:square;stroke-width:1.5;"/>
   </g>
   <g id="patch_3">
    <path d="M 45.903125 241.44 
L 45.903125 24 
" style="fill:none;stroke:#000000;stroke-linecap:square;stroke-linejoin:miter;stroke-width:0.8;"/>
   </g>
   <g id="patch_4">
    <path d="M 380.703125 241.44 
L 380.703125 24 
" style="fill:none;stroke:#000000;stroke-linecap:square;stroke-linejoin:miter;stroke-width:0.8;"/>
   </g>
   <g id="patch_5">
    <path d="M 45.903125 241.44 
L 380.703125 241.44 
" style="fill:none;stroke:#000000;stroke-linecap:square;stroke-linejoin:miter;stroke-width:0.8;"/>
   </g>
   <g id="patch_6">
    <path d="M 45.903125 24 
L 380.703125 24 
" style="fill:none;stroke:#000000;stroke-linecap:square;stroke-linejoin:miter;stroke-width:0.8;"/>
   </g>
   <g id="text_14">
    <!-- Effect of $p_R/p_P$ ($α_{1/2}$=25, $x_1^F$= 0.21) -->
    <defs>
     <path d="M 9.8125 72.90625 
L 55.90625 72.90625 
L 55.90625 64.59375 
L 19.671875 64.59375 
L 19.671875 43.015625 
L 54.390625 43.015625 
L 54.390625 34.71875 
L 19.671875 34.71875 
L 19.671875 8.296875 
L 56.78125 8.296875 
L 56.78125 0 
L 9.8125 0 
z
" id="DejaVuSans-69"/>
     <path d="M 37.109375 75.984375 
L 37.109375 68.5 
L 28.515625 68.5 
Q 23.6875 68.5 21.796875 66.546875 
Q 19.921875 64.59375 19.921875 59.515625 
L 19.921875 54.6875 
L 34.71875 54.6875 
L 34.71875 47.703125 
L 19.921875 47.703125 
L 19.921875 0 
L 10.890625 0 
L 10.890625 47.703125 
L 2.296875 47.703125 
L 2.296875 54.6875 
L 10.890625 54.6875 
L 10.890625 58.5 
Q 10.890625 67.625 15.140625 71.796875 
Q 19.390625 75.984375 28.609375 75.984375 
z
" id="DejaVuSans-102"/>
     <path d="M 56.203125 29.59375 
L 56.203125 25.203125 
L 14.890625 25.203125 
Q 15.484375 15.921875 20.484375 11.0625 
Q 25.484375 6.203125 34.421875 6.203125 
Q 39.59375 6.203125 44.453125 7.46875 
Q 49.3125 8.734375 54.109375 11.28125 
L 54.109375 2.78125 
Q 49.265625 0.734375 44.1875 -0.34375 
Q 39.109375 -1.421875 33.890625 -1.421875 
Q 20.796875 -1.421875 13.15625 6.1875 
Q 5.515625 13.8125 5.515625 26.8125 
Q 5.515625 40.234375 12.765625 48.109375 
Q 20.015625 56 32.328125 56 
Q 43.359375 56 49.78125 48.890625 
Q 56.203125 41.796875 56.203125 29.59375 
z
M 47.21875 32.234375 
Q 47.125 39.59375 43.09375 43.984375 
Q 39.0625 48.390625 32.421875 48.390625 
Q 24.90625 48.390625 20.390625 44.140625 
Q 15.875 39.890625 15.1875 32.171875 
z
" id="DejaVuSans-101"/>
     <path d="M 48.78125 52.59375 
L 48.78125 44.1875 
Q 44.96875 46.296875 41.140625 47.34375 
Q 37.3125 48.390625 33.40625 48.390625 
Q 24.65625 48.390625 19.8125 42.84375 
Q 14.984375 37.3125 14.984375 27.296875 
Q 14.984375 17.28125 19.8125 11.734375 
Q 24.65625 6.203125 33.40625 6.203125 
Q 37.3125 6.203125 41.140625 7.25 
Q 44.96875 8.296875 48.78125 10.40625 
L 48.78125 2.09375 
Q 45.015625 0.34375 40.984375 -0.53125 
Q 36.96875 -1.421875 32.421875 -1.421875 
Q 20.0625 -1.421875 12.78125 6.34375 
Q 5.515625 14.109375 5.515625 27.296875 
Q 5.515625 40.671875 12.859375 48.328125 
Q 20.21875 56 33.015625 56 
Q 37.15625 56 41.109375 55.140625 
Q 45.0625 54.296875 48.78125 52.59375 
z
" id="DejaVuSans-99"/>
     <path d="M 18.3125 70.21875 
L 18.3125 54.6875 
L 36.8125 54.6875 
L 36.8125 47.703125 
L 18.3125 47.703125 
L 18.3125 18.015625 
Q 18.3125 11.328125 20.140625 9.421875 
Q 21.96875 7.515625 27.59375 7.515625 
L 36.8125 7.515625 
L 36.8125 0 
L 27.59375 0 
Q 17.1875 0 13.234375 3.875 
Q 9.28125 7.765625 9.28125 18.015625 
L 9.28125 47.703125 
L 2.6875 47.703125 
L 2.6875 54.6875 
L 9.28125 54.6875 
L 9.28125 70.21875 
z
" id="DejaVuSans-116"/>
     <path id="DejaVuSans-32"/>
     <path d="M 30.609375 48.390625 
Q 23.390625 48.390625 19.1875 42.75 
Q 14.984375 37.109375 14.984375 27.296875 
Q 14.984375 17.484375 19.15625 11.84375 
Q 23.34375 6.203125 30.609375 6.203125 
Q 37.796875 6.203125 41.984375 11.859375 
Q 46.1875 17.53125 46.1875 27.296875 
Q 46.1875 37.015625 41.984375 42.703125 
Q 37.796875 48.390625 30.609375 48.390625 
z
M 30.609375 56 
Q 42.328125 56 49.015625 48.375 
Q 55.71875 40.765625 55.71875 27.296875 
Q 55.71875 13.875 49.015625 6.21875 
Q 42.328125 -1.421875 30.609375 -1.421875 
Q 18.84375 -1.421875 12.171875 6.21875 
Q 5.515625 13.875 5.515625 27.296875 
Q 5.515625 40.765625 12.171875 48.375 
Q 18.84375 56 30.609375 56 
z
" id="DejaVuSans-111"/>
     <path d="M 49.609375 33.6875 
Q 49.609375 40.875 46.484375 44.671875 
Q 43.359375 48.484375 37.5 48.484375 
Q 33.5 48.484375 29.859375 46.4375 
Q 26.21875 44.390625 23.390625 40.484375 
Q 20.609375 36.625 18.9375 31.15625 
Q 17.28125 25.6875 17.28125 20.3125 
Q 17.28125 13.484375 20.40625 9.796875 
Q 23.53125 6.109375 29.296875 6.109375 
Q 33.546875 6.109375 37.1875 8.109375 
Q 40.828125 10.109375 43.40625 13.921875 
Q 46.1875 17.921875 47.890625 23.34375 
Q 49.609375 28.765625 49.609375 33.6875 
z
M 21.78125 46.390625 
Q 25.390625 51.125 30.296875 53.5625 
Q 35.203125 56 41.21875 56 
Q 49.609375 56 54.25 50.5 
Q 58.890625 45.015625 58.890625 35.109375 
Q 58.890625 27 56 19.65625 
Q 53.125 12.3125 47.703125 6.5 
Q 44.09375 2.640625 39.546875 0.609375 
Q 35.015625 -1.421875 29.984375 -1.421875 
Q 24.171875 -1.421875 20.21875 1 
Q 16.265625 3.421875 14.3125 8.203125 
L 8.6875 -20.796875 
L -0.296875 -20.796875 
L 14.40625 54.6875 
L 23.390625 54.6875 
z
" id="DejaVuSans-Oblique-112"/>
     <path d="M 25.203125 64.796875 
L 20.21875 38.921875 
L 32.90625 38.921875 
Q 40.375 38.921875 44.984375 43.046875 
Q 49.609375 47.171875 49.609375 53.8125 
Q 49.609375 59.125 46.5 61.953125 
Q 43.40625 64.796875 37.59375 64.796875 
z
M 43.3125 35.015625 
Q 46.4375 34.28125 48.515625 31.390625 
Q 50.59375 28.515625 53.328125 19.921875 
L 59.515625 0 
L 49.125 0 
L 43.40625 18.703125 
Q 41.21875 25.921875 38.328125 28.359375 
Q 35.453125 30.8125 29.5 30.8125 
L 18.609375 30.8125 
L 12.59375 0 
L 2.6875 0 
L 16.890625 72.90625 
L 39.109375 72.90625 
Q 49.21875 72.90625 54.609375 68.328125 
Q 60.015625 63.765625 60.015625 55.171875 
Q 60.015625 47.5625 55.421875 41.984375 
Q 50.828125 36.421875 43.3125 35.015625 
z
" id="DejaVuSans-Oblique-82"/>
     <path d="M 25.390625 72.90625 
L 33.6875 72.90625 
L 8.296875 -9.28125 
L 0 -9.28125 
z
" id="DejaVuSans-47"/>
     <path d="M 31 75.875 
Q 24.46875 64.65625 21.28125 53.65625 
Q 18.109375 42.671875 18.109375 31.390625 
Q 18.109375 20.125 21.3125 9.0625 
Q 24.515625 -2 31 -13.1875 
L 23.1875 -13.1875 
Q 15.875 -1.703125 12.234375 9.375 
Q 8.59375 20.453125 8.59375 31.390625 
Q 8.59375 42.28125 12.203125 53.3125 
Q 15.828125 64.359375 23.1875 75.875 
z
" id="DejaVuSans-40"/>
     <path d="M 40.921875 25.4375 
L 40.96875 36.71875 
Q 41.015625 48.25 32.328125 48.296875 
Q 25.828125 48.34375 21.78125 42.921875 
Q 16.703125 36.234375 14.984375 27.296875 
Q 12.890625 16.546875 15.53125 11.421875 
Q 18.265625 6.203125 24.171875 6.203125 
Q 30.71875 6.203125 36.234375 16.609375 
z
M 33.84375 55.90625 
Q 49.078125 56.15625 48.875 40.375 
Q 48.875 40.375 56.5 54.6875 
L 64.5 54.6875 
L 48.734375 25.046875 
L 48.578125 14.359375 
Q 48.578125 11.96875 49.90625 9.96875 
Q 51.421875 7.625 52.984375 7.625 
L 57.328125 7.625 
L 55.859375 0 
L 50.4375 0 
Q 45.84375 0 42.53125 4.109375 
Q 40.96875 6.15625 40.921875 10.453125 
Q 37.75 5.21875 32.28125 0.78125 
Q 29.6875 -1.265625 22.703125 -1.21875 
Q 11.28125 -1.125 7.125 6.203125 
Q 2.875 13.8125 5.515625 27.296875 
Q 8.34375 41.796875 15.765625 48.390625 
Q 24.125 55.765625 33.84375 55.90625 
z
" id="DejaVuSans-Oblique-945"/>
     <path d="M 10.59375 45.40625 
L 73.1875 45.40625 
L 73.1875 37.203125 
L 10.59375 37.203125 
z
M 10.59375 25.484375 
L 73.1875 25.484375 
L 73.1875 17.1875 
L 10.59375 17.1875 
z
" id="DejaVuSans-61"/>
     <path d="M 10.796875 72.90625 
L 49.515625 72.90625 
L 49.515625 64.59375 
L 19.828125 64.59375 
L 19.828125 46.734375 
Q 21.96875 47.46875 24.109375 47.828125 
Q 26.265625 48.1875 28.421875 48.1875 
Q 40.625 48.1875 47.75 41.5 
Q 54.890625 34.8125 54.890625 23.390625 
Q 54.890625 11.625 47.5625 5.09375 
Q 40.234375 -1.421875 26.90625 -1.421875 
Q 22.3125 -1.421875 17.546875 -0.640625 
Q 12.796875 0.140625 7.71875 1.703125 
L 7.71875 11.625 
Q 12.109375 9.234375 16.796875 8.0625 
Q 21.484375 6.890625 26.703125 6.890625 
Q 35.15625 6.890625 40.078125 11.328125 
Q 45.015625 15.765625 45.015625 23.390625 
Q 45.015625 31 40.078125 35.4375 
Q 35.15625 39.890625 26.703125 39.890625 
Q 22.75 39.890625 18.8125 39.015625 
Q 14.890625 38.140625 10.796875 36.28125 
z
" id="DejaVuSans-53"/>
     <path d="M 11.71875 12.40625 
L 22.015625 12.40625 
L 22.015625 4 
L 14.015625 -11.625 
L 7.71875 -11.625 
L 11.71875 4 
z
" id="DejaVuSans-44"/>
     <path d="M 16.890625 72.90625 
L 58.6875 72.90625 
L 57.078125 64.59375 
L 25.09375 64.59375 
L 20.90625 43.109375 
L 49.8125 43.109375 
L 48.1875 34.8125 
L 19.28125 34.8125 
L 12.5 0 
L 2.6875 0 
z
" id="DejaVuSans-Oblique-70"/>
     <path d="M 8.015625 75.875 
L 15.828125 75.875 
Q 23.140625 64.359375 26.78125 53.3125 
Q 30.421875 42.28125 30.421875 31.390625 
Q 30.421875 20.453125 26.78125 9.375 
Q 23.140625 -1.703125 15.828125 -13.1875 
L 8.015625 -13.1875 
Q 14.5 -2 17.703125 9.0625 
Q 20.90625 20.125 20.90625 31.390625 
Q 20.90625 42.671875 17.703125 53.65625 
Q 14.5 64.65625 8.015625 75.875 
z
" id="DejaVuSans-41"/>
    </defs>
    <g transform="translate(110.283125 18)scale(0.12 -0.12)">
     <use transform="translate(0 0.684375)" xlink:href="#DejaVuSans-69"/>
     <use transform="translate(63.183594 0.684375)" xlink:href="#DejaVuSans-102"/>
     <use transform="translate(98.388672 0.684375)" xlink:href="#DejaVuSans-102"/>
     <use transform="translate(133.59375 0.684375)" xlink:href="#DejaVuSans-101"/>
     <use transform="translate(195.117188 0.684375)" xlink:href="#DejaVuSans-99"/>
     <use transform="translate(250.097656 0.684375)" xlink:href="#DejaVuSans-116"/>
     <use transform="translate(289.306641 0.684375)" xlink:href="#DejaVuSans-32"/>
     <use transform="translate(321.09375 0.684375)" xlink:href="#DejaVuSans-111"/>
     <use transform="translate(382.275391 0.684375)" xlink:href="#DejaVuSans-102"/>
     <use transform="translate(417.480469 0.684375)" xlink:href="#DejaVuSans-32"/>
     <use transform="translate(449.267578 0.684375)" xlink:href="#DejaVuSans-Oblique-112"/>
     <use transform="translate(512.744141 -15.721875)scale(0.7)" xlink:href="#DejaVuSans-Oblique-82"/>
     <use transform="translate(564.116211 0.684375)" xlink:href="#DejaVuSans-47"/>
     <use transform="translate(597.807617 0.684375)" xlink:href="#DejaVuSans-Oblique-112"/>
     <use transform="translate(661.28418 -15.721875)scale(0.7)" xlink:href="#DejaVuSans-Oblique-80"/>
     <use transform="translate(706.230469 0.684375)" xlink:href="#DejaVuSans-32"/>
     <use transform="translate(738.017578 0.684375)" xlink:href="#DejaVuSans-40"/>
     <use transform="translate(777.03125 0.684375)" xlink:href="#DejaVuSans-Oblique-945"/>
     <use transform="translate(842.949219 -15.721875)scale(0.7)" xlink:href="#DejaVuSans-49"/>
     <use transform="translate(887.485352 -15.721875)scale(0.7)" xlink:href="#DejaVuSans-47"/>
     <use transform="translate(911.036523 -15.721875)scale(0.7)" xlink:href="#DejaVuSans-50"/>
     <use transform="translate(958.307031 0.684375)" xlink:href="#DejaVuSans-61"/>
     <use transform="translate(1042.096094 0.684375)" xlink:href="#DejaVuSans-50"/>
     <use transform="translate(1105.719141 0.684375)" xlink:href="#DejaVuSans-53"/>
     <use transform="translate(1169.342187 0.684375)" xlink:href="#DejaVuSans-44"/>
     <use transform="translate(1201.129297 0.684375)" xlink:href="#DejaVuSans-32"/>
     <use transform="translate(1232.916406 0.684375)" xlink:href="#DejaVuSans-Oblique-120"/>
     <use transform="translate(1296.56224 38.965625)scale(0.7)" xlink:href="#DejaVuSans-Oblique-70"/>
     <use transform="translate(1292.096094 -26.659375)scale(0.7)" xlink:href="#DejaVuSans-49"/>
     <use transform="translate(1339.560286 0.684375)" xlink:href="#DejaVuSans-61"/>
     <use transform="translate(1423.349349 0.684375)" xlink:href="#DejaVuSans-32"/>
     <use transform="translate(1455.136458 0.684375)" xlink:href="#DejaVuSans-48"/>
     <use transform="translate(1518.759505 0.684375)" xlink:href="#DejaVuSans-46"/>
     <use transform="translate(1550.46849 0.684375)" xlink:href="#DejaVuSans-50"/>
     <use transform="translate(1614.091536 0.684375)" xlink:href="#DejaVuSans-49"/>
     <use transform="translate(1677.714583 0.684375)" xlink:href="#DejaVuSans-41"/>
    </g>
   </g>
   <g id="legend_1">
    <g id="patch_7">
     <path d="M 285.303125 105.492188 
L 373.703125 105.492188 
Q 375.703125 105.492188 375.703125 103.492188 
L 375.703125 31 
Q 375.703125 29 373.703125 29 
L 285.303125 29 
Q 283.303125 29 283.303125 31 
L 283.303125 103.492188 
Q 283.303125 105.492188 285.303125 105.492188 
z
" style="fill:#ffffff;opacity:0.8;stroke:#cccccc;stroke-linejoin:miter;"/>
    </g>
    <g id="line2d_17">
     <path d="M 287.303125 37.098438 
L 307.303125 37.098438 
" style="fill:none;stroke:#1f77b4;stroke-linecap:square;stroke-width:1.5;"/>
    </g>
    <g id="line2d_18"/>
    <g id="text_15">
     <!-- $p_R/p_P$ =2 -->
     <g transform="translate(315.303125 40.598438)scale(0.1 -0.1)">
      <use transform="translate(0 0.78125)" xlink:href="#DejaVuSans-Oblique-112"/>
      <use transform="translate(63.476562 -15.625)scale(0.7)" xlink:href="#DejaVuSans-Oblique-82"/>
      <use transform="translate(114.848633 0.78125)" xlink:href="#DejaVuSans-47"/>
      <use transform="translate(148.540039 0.78125)" xlink:href="#DejaVuSans-Oblique-112"/>
      <use transform="translate(212.016602 -15.625)scale(0.7)" xlink:href="#DejaVuSans-Oblique-80"/>
      <use transform="translate(256.962891 0.78125)" xlink:href="#DejaVuSans-32"/>
      <use transform="translate(288.75 0.78125)" xlink:href="#DejaVuSans-61"/>
      <use transform="translate(372.539062 0.78125)" xlink:href="#DejaVuSans-50"/>
     </g>
    </g>
    <g id="line2d_19">
     <path d="M 287.303125 51.796875 
L 307.303125 51.796875 
" style="fill:none;stroke:#ff7f0e;stroke-linecap:square;stroke-width:1.5;"/>
    </g>
    <g id="line2d_20"/>
    <g id="text_16">
     <!-- $p_R/p_P$ =5 -->
     <g transform="translate(315.303125 55.296875)scale(0.1 -0.1)">
      <use transform="translate(0 0.09375)" xlink:href="#DejaVuSans-Oblique-112"/>
      <use transform="translate(63.476562 -16.3125)scale(0.7)" xlink:href="#DejaVuSans-Oblique-82"/>
      <use transform="translate(114.848633 0.09375)" xlink:href="#DejaVuSans-47"/>
      <use transform="translate(148.540039 0.09375)" xlink:href="#DejaVuSans-Oblique-112"/>
      <use transform="translate(212.016602 -16.3125)scale(0.7)" xlink:href="#DejaVuSans-Oblique-80"/>
      <use transform="translate(256.962891 0.09375)" xlink:href="#DejaVuSans-32"/>
      <use transform="translate(288.75 0.09375)" xlink:href="#DejaVuSans-61"/>
      <use transform="translate(372.539062 0.09375)" xlink:href="#DejaVuSans-53"/>
     </g>
    </g>
    <g id="line2d_21">
     <path d="M 287.303125 66.495313 
L 307.303125 66.495313 
" style="fill:none;stroke:#2ca02c;stroke-linecap:square;stroke-width:1.5;"/>
    </g>
    <g id="line2d_22"/>
    <g id="text_17">
     <!-- $p_R/p_P$ =10 -->
     <g transform="translate(315.303125 69.995313)scale(0.1 -0.1)">
      <use transform="translate(0 0.78125)" xlink:href="#DejaVuSans-Oblique-112"/>
      <use transform="translate(63.476562 -15.625)scale(0.7)" xlink:href="#DejaVuSans-Oblique-82"/>
      <use transform="translate(114.848633 0.78125)" xlink:href="#DejaVuSans-47"/>
      <use transform="translate(148.540039 0.78125)" xlink:href="#DejaVuSans-Oblique-112"/>
      <use transform="translate(212.016602 -15.625)scale(0.7)" xlink:href="#DejaVuSans-Oblique-80"/>
      <use transform="translate(256.962891 0.78125)" xlink:href="#DejaVuSans-32"/>
      <use transform="translate(288.75 0.78125)" xlink:href="#DejaVuSans-61"/>
      <use transform="translate(372.539062 0.78125)" xlink:href="#DejaVuSans-49"/>
      <use transform="translate(436.162109 0.78125)" xlink:href="#DejaVuSans-48"/>
     </g>
    </g>
    <g id="line2d_23">
     <path d="M 287.303125 81.19375 
L 307.303125 81.19375 
" style="fill:none;stroke:#d62728;stroke-linecap:square;stroke-width:1.5;"/>
    </g>
    <g id="line2d_24"/>
    <g id="text_18">
     <!-- $p_R/p_P$ =30 -->
     <defs>
      <path d="M 40.578125 39.3125 
Q 47.65625 37.796875 51.625 33 
Q 55.609375 28.21875 55.609375 21.1875 
Q 55.609375 10.40625 48.1875 4.484375 
Q 40.765625 -1.421875 27.09375 -1.421875 
Q 22.515625 -1.421875 17.65625 -0.515625 
Q 12.796875 0.390625 7.625 2.203125 
L 7.625 11.71875 
Q 11.71875 9.328125 16.59375 8.109375 
Q 21.484375 6.890625 26.8125 6.890625 
Q 36.078125 6.890625 40.9375 10.546875 
Q 45.796875 14.203125 45.796875 21.1875 
Q 45.796875 27.640625 41.28125 31.265625 
Q 36.765625 34.90625 28.71875 34.90625 
L 20.21875 34.90625 
L 20.21875 43.015625 
L 29.109375 43.015625 
Q 36.375 43.015625 40.234375 45.921875 
Q 44.09375 48.828125 44.09375 54.296875 
Q 44.09375 59.90625 40.109375 62.90625 
Q 36.140625 65.921875 28.71875 65.921875 
Q 24.65625 65.921875 20.015625 65.03125 
Q 15.375 64.15625 9.8125 62.3125 
L 9.8125 71.09375 
Q 15.4375 72.65625 20.34375 73.4375 
Q 25.25 74.21875 29.59375 74.21875 
Q 40.828125 74.21875 47.359375 69.109375 
Q 53.90625 64.015625 53.90625 55.328125 
Q 53.90625 49.265625 50.4375 45.09375 
Q 46.96875 40.921875 40.578125 39.3125 
z
" id="DejaVuSans-51"/>
     </defs>
     <g transform="translate(315.303125 84.69375)scale(0.1 -0.1)">
      <use transform="translate(0 0.78125)" xlink:href="#DejaVuSans-Oblique-112"/>
      <use transform="translate(63.476562 -15.625)scale(0.7)" xlink:href="#DejaVuSans-Oblique-82"/>
      <use transform="translate(114.848633 0.78125)" xlink:href="#DejaVuSans-47"/>
      <use transform="translate(148.540039 0.78125)" xlink:href="#DejaVuSans-Oblique-112"/>
      <use transform="translate(212.016602 -15.625)scale(0.7)" xlink:href="#DejaVuSans-Oblique-80"/>
      <use transform="translate(256.962891 0.78125)" xlink:href="#DejaVuSans-32"/>
      <use transform="translate(288.75 0.78125)" xlink:href="#DejaVuSans-61"/>
      <use transform="translate(372.539062 0.78125)" xlink:href="#DejaVuSans-51"/>
      <use transform="translate(436.162109 0.78125)" xlink:href="#DejaVuSans-48"/>
     </g>
    </g>
    <g id="line2d_25">
     <path d="M 287.303125 95.892188 
L 307.303125 95.892188 
" style="fill:none;stroke:#9467bd;stroke-linecap:square;stroke-width:1.5;"/>
    </g>
    <g id="line2d_26"/>
    <g id="text_19">
     <!-- $p_R/p_P$ =100 -->
     <g transform="translate(315.303125 99.392188)scale(0.1 -0.1)">
      <use transform="translate(0 0.78125)" xlink:href="#DejaVuSans-Oblique-112"/>
      <use transform="translate(63.476562 -15.625)scale(0.7)" xlink:href="#DejaVuSans-Oblique-82"/>
      <use transform="translate(114.848633 0.78125)" xlink:href="#DejaVuSans-47"/>
      <use transform="translate(148.540039 0.78125)" xlink:href="#DejaVuSans-Oblique-112"/>
      <use transform="translate(212.016602 -15.625)scale(0.7)" xlink:href="#DejaVuSans-Oblique-80"/>
      <use transform="translate(256.962891 0.78125)" xlink:href="#DejaVuSans-32"/>
      <use transform="translate(288.75 0.78125)" xlink:href="#DejaVuSans-61"/>
      <use transform="translate(372.539062 0.78125)" xlink:href="#DejaVuSans-49"/>
      <use transform="translate(436.162109 0.78125)" xlink:href="#DejaVuSans-48"/>
      <use transform="translate(499.785156 0.78125)" xlink:href="#DejaVuSans-48"/>
     </g>
    </g>
   </g>
  </g>
 </g>
 <defs>
  <clipPath id="p79d6b70daa">
   <rect height="217.44" width="334.8" x="45.903125" y="24"/>
  </clipPath>
 </defs>
</svg>
